<svg width="48" height="48" viewBox="0 0 48 48" fill="none" xmlns="http://www.w3.org/2000/svg">
<path d="M0 24C0 10.7452 10.7452 0 24 0C37.2548 0 48 10.7452 48 24C48 37.2548 37.2548 48 24 48C10.7452 48 0 37.2548 0 24Z" fill="white"/>
<path d="M29.819 16.1771C31.7271 16.1772 33.7487 17.2228 35.1872 19.0267C30.4708 21.6271 31.2341 28.4027 35.9997 30.2152C35.3445 31.6754 35.0292 32.328 34.1852 33.6215C33.0078 35.4271 31.3478 37.6759 29.2887 37.6927C27.4609 37.7126 26.9889 36.4943 24.5075 36.5092C22.0265 36.5225 21.5091 37.7156 19.6784 37.6976C17.6208 37.6795 16.0472 35.6507 14.8698 33.8451C11.5755 28.7996 11.229 22.8765 13.2604 19.726C14.7055 17.489 16.9852 16.1801 19.1266 16.1801C21.3054 16.1802 22.6766 17.383 24.4811 17.3832C26.2317 17.3832 27.2982 16.1771 29.819 16.1771ZM29.2672 9.59998C29.5185 11.3066 28.8232 12.9786 27.9069 14.1615C26.9265 15.4302 25.2365 16.4119 23.5993 16.3607C23.3004 14.7269 24.0657 13.0432 24.9967 11.9115C26.0182 10.6625 27.7695 9.70406 29.2672 9.59998Z" fill="#0B0B0A"/>
</svg>
