<svg width="46" height="36" viewBox="0 0 46 36" fill="none" xmlns="http://www.w3.org/2000/svg">
<path d="M44.8861 20.2747C44.5511 15.7286 43.9994 14.8432 43.7909 14.5102C43.3117 13.7407 42.545 13.2379 41.7336 12.7102C41.6877 12.6809 41.6481 12.6391 41.6179 12.5881C41.5876 12.5371 41.5676 12.4783 41.5594 12.4163C41.5512 12.3543 41.555 12.2909 41.5706 12.231C41.5861 12.1711 41.6129 12.1164 41.6489 12.0712C41.7992 11.887 41.9147 11.6656 41.9874 11.4223C42.0602 11.1789 42.0885 10.9194 42.0704 10.6616C42.0354 10.2044 41.8596 9.77985 41.5778 9.47206C41.296 9.16428 40.9288 8.99579 40.5491 9H39.0975C39.0353 9.00045 38.9732 9.00533 38.9114 9.01463C38.869 8.9924 38.8251 8.97471 38.7802 8.96175C37.9204 6.76463 36.7434 3.75637 34.3036 2.28825C30.6849 0.1125 24.0188 0 22.7161 0C21.4135 0 14.7474 0.1125 11.1333 2.28487C8.69358 3.753 7.5165 6.76125 6.65672 8.95837L6.64928 8.97637C6.6064 8.98367 6.56429 8.99649 6.52366 9.01463C6.46192 9.00533 6.39978 9.00045 6.33756 9H4.8832C4.50346 8.99579 4.13627 9.16428 3.85447 9.47206C3.57267 9.77985 3.39684 10.2044 3.36184 10.6616C3.34531 10.9188 3.37492 11.1774 3.44863 11.4195C3.52234 11.6616 3.63842 11.8816 3.78894 12.0645C3.82495 12.1097 3.85178 12.1644 3.86731 12.2243C3.88284 12.2841 3.88665 12.3476 3.87844 12.4095C3.87023 12.4715 3.85022 12.5303 3.81999 12.5813C3.78977 12.6323 3.75015 12.6742 3.70426 12.7035C2.89287 13.2345 2.12242 13.7374 1.64694 14.5035C1.43851 14.841 0.887653 15.7219 0.551745 20.268C0.365645 22.8263 0.337731 25.4745 0.483818 27.18C0.789951 30.7237 1.36407 32.8657 1.38826 32.9546C1.47636 33.278 1.63853 33.5646 1.85594 33.7811C2.07335 33.9975 2.33708 34.135 2.61651 34.1775V34.2C2.61651 34.6774 2.77337 35.1352 3.05257 35.4728C3.33177 35.8104 3.71045 36 4.10531 36H9.31608C9.71093 36 10.0896 35.8104 10.3688 35.4728C10.648 35.1352 10.8049 34.6774 10.8049 34.2C11.606 34.2 12.1634 34.0267 12.7543 33.8423C13.6073 33.5643 14.4793 33.3795 15.3596 33.2899C18.1986 32.9625 21.0217 32.85 22.7161 32.85C24.3761 32.85 27.324 32.9625 30.1675 33.2899C31.0514 33.3797 31.9268 33.5653 32.7832 33.8445C33.3489 34.02 33.8858 34.182 34.6293 34.1989C34.6293 34.6763 34.7861 35.1341 35.0653 35.4717C35.3445 35.8092 35.7232 35.9989 36.1181 35.9989H41.3288C41.7237 35.9989 42.1024 35.8092 42.3816 35.4717C42.6608 35.1341 42.8176 34.6763 42.8176 34.1989V34.1854C43.0977 34.1437 43.3623 34.0066 43.5804 33.7901C43.7985 33.5736 43.9612 33.2865 44.0496 32.9625C44.0738 32.8736 44.6479 30.7316 44.9541 27.1879C45.1001 25.4813 45.0741 22.8375 44.8861 20.2747ZM9.34772 10.4974C10.0921 8.58487 10.9435 6.42038 12.4593 5.508C14.6497 4.1895 19.1896 3.5955 22.7161 3.5955C26.2427 3.5955 30.7826 4.185 32.973 5.508C34.4888 6.42038 35.3365 8.586 36.0846 10.4974L36.1776 10.7415C36.232 10.8805 36.2561 11.034 36.2475 11.1874C36.2389 11.3408 36.1979 11.489 36.1285 11.6178C36.0591 11.7467 35.9635 11.8519 35.8509 11.9233C35.7383 11.9948 35.6125 12.0303 35.4853 12.0262C32.3933 11.925 25.8798 11.601 22.7161 11.601C19.5525 11.601 13.039 11.9329 9.9423 12.0341C9.81517 12.0381 9.6893 12.0027 9.57671 11.9312C9.46412 11.8597 9.36855 11.7545 9.29913 11.6257C9.22971 11.4969 9.18875 11.3487 9.18015 11.1953C9.17155 11.0419 9.1956 10.8884 9.25002 10.7494C9.28258 10.6661 9.31701 10.5817 9.34772 10.4974ZM10.4578 19.4557C8.85716 19.6887 7.24629 19.8036 5.63411 19.8C4.64778 19.8 3.63075 19.4625 3.44186 18.4005C3.31252 17.6861 3.32648 17.2845 3.39627 16.8806C3.45489 16.5375 3.54794 16.2878 4.01319 16.2C5.22283 15.975 5.8993 16.2574 7.8794 16.9627C9.19232 17.4296 10.1396 18.0517 10.6793 18.5445C10.95 18.7875 10.8058 19.422 10.4578 19.4557ZM31.0571 28.6807C29.8326 28.8495 27.3835 28.7876 22.7441 28.7876C18.1046 28.7876 15.6565 28.8495 14.4319 28.6807C13.1683 28.5109 11.5576 27.0664 12.6575 25.7794C13.3898 24.9311 15.0982 24.2966 17.3732 23.94C19.6483 23.5834 20.6114 23.4 22.7348 23.4C24.8581 23.4 25.7235 23.5125 28.0963 23.9411C30.469 24.3697 32.2621 25.0121 32.812 25.7805C33.8151 27.1575 32.3198 28.5019 31.0571 28.6875V28.6807ZM41.9904 18.3994C41.8043 19.4659 40.7808 19.7989 39.7982 19.7989C38.1551 19.7993 36.5135 19.6844 34.8814 19.4546C34.5967 19.422 34.4646 18.8179 34.753 18.5434C35.2843 18.0382 36.2418 17.4285 37.5529 16.9616C39.533 16.2563 40.6747 15.9739 41.6554 16.209C41.8946 16.2664 42.0211 16.5769 42.036 16.7715C42.1016 17.3134 42.0862 17.8652 41.9904 18.4005V18.3994Z" fill="white"/>
</svg>
