<svg width="44" height="43" viewBox="0 0 44 43" fill="none" xmlns="http://www.w3.org/2000/svg">
<path fill-rule="evenodd" clip-rule="evenodd" d="M17.3982 0.0686112C17.9188 0.023845 18.4412 0.000952912 18.9638 0C19.5166 0 20.0496 0.0283593 20.5304 0.0686112C21.3692 0.134295 22.1482 0.513828 22.701 1.12614C30.9747 2.59808 37.7852 9.30459 38.1294 17.5041L42.0249 22.2886C42.6738 23.085 43.0264 24.0686 43.0263 25.0815C43.0263 26.8608 41.9358 28.5304 40.1464 29.2073C39.4523 29.4708 38.5969 29.78 37.7359 30.049L36.8663 35.6577C36.7031 36.7196 36.1107 37.676 35.2187 38.3178C34.3267 38.9596 33.2076 39.2346 32.106 39.0828L30.0672 38.801V41.1704C30.0672 41.6556 29.8674 42.121 29.5117 42.4641C29.156 42.8072 28.6736 43 28.1706 43C27.6676 43 27.1852 42.8072 26.8296 42.4641C26.4739 42.121 26.2741 41.6556 26.2741 41.1704V36.6905C26.274 36.4284 26.3324 36.1693 26.4453 35.9308C26.5581 35.6923 26.7227 35.48 26.928 35.3082C27.1333 35.1364 27.3745 35.0092 27.6351 34.9352C27.8958 34.8612 28.17 34.8421 28.439 34.8792L32.6446 35.461C32.6989 35.4682 32.7541 35.4651 32.8072 35.4517C32.8602 35.4383 32.91 35.415 32.9536 35.383C32.9973 35.3511 33.034 35.3111 33.0617 35.2655C33.0894 35.2199 33.1075 35.1694 33.1149 35.117L34.1628 28.3584C34.2174 28.0054 34.3779 27.6756 34.6244 27.4095C34.8709 27.1435 35.1927 26.9527 35.5501 26.8608C36.5629 26.601 37.7757 26.1747 38.7591 25.8015C39.0227 25.7017 39.2332 25.4355 39.2332 25.0815C39.2339 24.8882 39.1671 24.7003 39.0436 24.5482L34.7545 19.2834C34.4919 18.9613 34.3489 18.5634 34.3486 18.1536C34.3486 12.1579 29.7523 6.8474 23.6009 5.09095C23.616 5.93715 23.6265 6.93064 23.6265 8.08057C23.6265 8.93409 23.6208 10.32 23.6123 11.2294C24.8884 12.0508 25.9063 13.1945 26.555 14.5357C27.2036 15.8769 27.4582 17.3642 27.291 18.8354C27.1237 20.3066 26.541 21.7053 25.6064 22.8789C24.6717 24.0526 23.4211 24.9562 21.9907 25.4913C24.3434 27.4637 27.3304 28.6648 30.107 28.6648C30.3561 28.6648 30.6027 28.7122 30.8328 28.8041C31.0629 28.8961 31.272 29.0308 31.4481 29.2007C31.6242 29.3706 31.7639 29.5723 31.8592 29.7943C31.9545 30.0163 32.0036 30.2542 32.0036 30.4945C32.0036 30.7347 31.9545 30.9727 31.8592 31.1946C31.7639 31.4166 31.6242 31.6183 31.4481 31.7882C31.272 31.9581 31.0629 32.0929 30.8328 32.1848C30.6027 32.2768 30.3561 32.3241 30.107 32.3241C25.376 32.3241 20.5967 29.8678 17.5073 26.2909C17.3947 26.1606 17.3016 26.0159 17.2304 25.8609C15.6177 25.5307 14.1419 24.749 12.9876 23.6136C11.8332 22.4782 11.0517 21.0396 10.7407 19.4777C10.4298 17.9159 10.6032 16.3003 11.2394 14.8332C11.8756 13.366 12.9462 12.1124 14.3173 11.2294C14.3076 10.1798 14.3026 9.13018 14.3021 8.08057C14.3033 7.01389 14.3109 6.07865 14.3248 5.27483C8.40001 7.24534 4.14699 12.6665 4.14699 19.0401C4.14699 24.5683 7.33035 29.7763 11.92 32.2381C12.2155 32.3966 12.4617 32.6285 12.6331 32.9096C12.8045 33.1908 12.8948 33.511 12.8948 33.8372V41.1695C12.8948 41.6547 12.695 42.1201 12.3393 42.4632C11.9837 42.8063 11.5013 42.9991 10.9983 42.9991C10.4953 42.9991 10.0129 42.8063 9.65722 42.4632C9.30155 42.1201 9.10173 41.6547 9.10173 41.1695V34.8719C3.80371 31.5666 0.353882 25.4502 0.353882 19.0401C0.353882 10.3493 6.6675 3.08567 15.11 1.26245C15.3845 0.92104 15.7298 0.638561 16.1238 0.433014C16.5177 0.227467 16.9518 0.103362 17.3982 0.0686112Z" fill="white"/>
</svg>
