<svg width="44" height="44" viewBox="0 0 44 44" fill="none" xmlns="http://www.w3.org/2000/svg">
<path d="M34.8334 7.33333H9.16669C7.708 7.33333 6.30905 7.91279 5.2776 8.94424C4.24615 9.97569 3.66669 11.3746 3.66669 12.8333V31.1667C3.66669 32.6253 4.24615 34.0243 5.2776 35.0557C6.30905 36.0872 7.708 36.6667 9.16669 36.6667H34.8334C36.292 36.6667 37.691 36.0872 38.7224 35.0557C39.7539 34.0243 40.3334 32.6253 40.3334 31.1667V12.8333C40.3334 11.3746 39.7539 9.97569 38.7224 8.94424C37.691 7.91279 36.292 7.33333 34.8334 7.33333ZM34.8334 11L22.9167 19.195C22.638 19.3559 22.3218 19.4406 22 19.4406C21.6782 19.4406 21.3621 19.3559 21.0834 19.195L9.16669 11H34.8334Z" fill="white"/>
</svg>
