<svg width="52" height="52" viewBox="0 0 52 52" fill="none" xmlns="http://www.w3.org/2000/svg">
<path d="M26 0C11.648 0 0 11.648 0 26C0 40.352 11.648 52 26 52C40.352 52 52 40.352 52 26C52 11.648 40.352 0 26 0ZM29.9 10.4C31.33 10.4 32.5 11.57 32.5 13C32.5 14.43 31.33 15.6 29.9 15.6C28.47 15.6 27.3 14.43 27.3 13C27.3 11.57 28.47 10.4 29.9 10.4ZM36.4 26C34.58 26 31.174 24.596 28.834 21.424L27.768 27.534L31.2 31.278V41.6H28.6V32.292L25.714 29.146L24.362 36.01L14.56 34.008L15.08 31.46L22.308 32.942L24.804 20.228L20.8 21.71V26H18.2V19.89L26.728 16.744C28.002 16.276 29.406 16.9 30.004 18.122C32.162 22.542 35.334 23.4 36.4 23.4V26Z" fill="white"/>
</svg>
