<svg width="44" height="43" viewBox="0 0 44 43" fill="none" xmlns="http://www.w3.org/2000/svg">
<path d="M22.0651 0.015625C24.8649 0.0156118 27.6375 0.571694 30.2242 1.65137C32.8109 2.73104 35.1614 4.31362 37.1412 6.30859C39.1209 8.30355 40.6919 10.6718 41.7633 13.2783C42.8347 15.8849 43.3864 18.6787 43.3864 21.5C43.3863 33.3656 33.84 42.9844 22.0651 42.9844C10.2903 42.9843 0.744779 33.3655 0.744751 21.5C0.744751 9.63456 10.2903 0.0157497 22.0651 0.015625ZM19.9313 23.6348C14.6427 23.6349 10.1024 26.8626 8.14417 31.4697L8.14124 31.4775L8.14612 31.4844C11.2437 35.8612 16.3235 38.7157 22.0651 38.7158C27.8067 38.7158 32.8873 35.8616 35.985 31.4844L35.9899 31.4775L35.986 31.4688C34.0276 26.862 29.4874 23.6348 24.1989 23.6348H19.9313ZM22.0651 6.43457C18.5214 6.43469 15.649 9.32974 15.649 12.9004C15.6493 16.4709 18.5215 19.3651 22.0651 19.3652C25.6087 19.3652 28.4818 16.4709 28.4821 12.9004C28.4821 9.32966 25.609 6.43457 22.0651 6.43457Z" fill="white" stroke="white" stroke-width="0.03125"/>
</svg>
