<svg width="43" height="43" viewBox="0 0 43 43" fill="none" xmlns="http://www.w3.org/2000/svg">
<mask id="path-1-inside-1_126_104" fill="white">
<path d="M42.7707 35.5989C42.7766 35.6434 42.7784 35.6884 42.776 35.7338V40.9396C42.776 41.4782 42.5194 41.9947 42.0626 42.3756C41.6058 42.7564 40.9862 42.9704 40.3402 42.9704H40.3296C40.2521 42.9892 40.172 42.9992 40.0913 43H0.993795C0.758022 43 0.531906 42.9219 0.365189 42.7829C0.198472 42.6439 0.104811 42.4554 0.104811 42.2589V37.0709C0.0875942 33.8099 1.19956 30.614 3.30723 27.8669C5.41491 25.1198 8.42874 22.9382 11.987 21.5839C11.9034 21.4871 11.8234 21.3883 11.7469 21.2875C10.8215 20.9917 10.0235 20.4716 9.45594 19.7941C8.88837 19.1167 8.57721 18.3131 8.5626 17.4869V16.4285C8.09593 16.092 7.73137 15.6682 7.4987 15.1918C7.26603 14.7153 7.17186 14.1998 7.22388 13.6872C7.27589 13.1746 7.47262 12.6796 7.79799 12.2425C8.12336 11.8054 8.56814 11.4387 9.09599 11.1723V9.32096C8.79939 8.16058 8.80083 6.96099 9.10023 5.80111C9.39962 4.64122 9.99019 3.54733 10.8331 2.59138C11.8208 1.71564 13.0268 1.031 14.3661 0.585657C15.7054 0.14031 17.1455 -0.0549263 18.585 0.013686H22.5908C24.0325 -0.0556692 25.475 0.139175 26.8167 0.584514C28.1585 1.02985 29.3669 1.71487 30.3569 2.59138C31.2087 3.56721 31.8027 4.68249 32.0996 5.86369C32.3966 7.04488 32.3898 8.26514 32.0798 9.44399V11.1812C32.6007 11.4474 33.0396 11.8115 33.3613 12.2446C33.683 12.6776 33.8785 13.1674 33.9323 13.6747C33.986 14.1821 33.8965 14.6929 33.6708 15.1662C33.4451 15.6396 33.0896 16.0622 32.6327 16.4004V17.4869C32.6314 18.2612 32.3645 19.0191 31.8637 19.6712C31.3628 20.3233 30.6488 20.8424 29.8058 21.1674C29.6777 21.3482 29.5385 21.5236 29.3879 21.6936C30.2959 22.0642 31.1653 22.4871 31.9962 22.9625C31.7082 23.4131 31.5019 23.8963 31.3846 24.3988L31.3704 24.3899C31.2981 24.6992 31.2595 25.0154 31.2548 25.3386C31.2474 26.0205 31.4023 26.697 31.7106 27.3287C32.0188 27.9605 32.4742 28.535 33.0506 29.0191V34.1359C33.3947 33.9093 33.8091 33.7689 34.2453 33.7313C34.3196 33.7147 34.3961 33.7062 34.4729 33.7061H35.7175V29.0458C35.7175 28.8975 35.6108 28.7493 35.4508 28.6752C34.7863 28.3901 34.2184 27.9705 33.799 27.4549C33.3796 26.9393 33.1223 26.3441 33.0506 25.7239V25.0569C33.1148 24.4487 33.3597 23.8633 33.7632 23.3538C34.1668 22.8442 34.7162 22.4265 35.3619 22.1383C35.6997 21.9901 36.1264 22.1976 36.1264 22.5237V24.8361C36.1264 25.4438 36.6954 25.933 37.4244 25.9478C38.1711 25.9626 38.7756 25.4438 38.7756 24.8212V22.5237C38.7756 22.1976 39.2023 22.0049 39.5401 22.1531C40.9269 22.7757 41.8693 24.006 41.8871 25.3845C41.8871 26.7927 40.9447 28.023 39.5401 28.6455C39.3801 28.7197 39.2734 28.8679 39.2734 29.0161V30.6244C39.533 30.5532 39.8056 30.5172 40.0913 30.5162C41.5599 30.5162 42.7583 31.5152 42.7583 32.7396V35.4893L42.7707 35.5989ZM29.3702 23.3523C29.1011 23.2307 28.8285 23.1156 28.5523 23.0069V29.0369C28.5523 30.322 26.8312 31.0543 25.5866 30.3265L25.5511 30.3042L20.7079 26.8164C20.6644 26.7852 20.6089 26.768 20.5514 26.768C20.494 26.768 20.4385 26.7852 20.395 26.8164L15.5518 30.3042L15.5162 30.325C15.234 30.491 14.9024 30.589 14.5578 30.6084C14.2132 30.6277 13.8688 30.5675 13.5625 30.4344C13.2562 30.3014 12.9997 30.1006 12.8212 29.8541C12.6427 29.6076 12.5491 29.3248 12.5506 29.0369V23.001C12.2922 23.1028 12.0373 23.2085 11.7861 23.3182V31.2751C11.7861 31.616 12.1061 31.8829 12.515 31.8829H28.6412C29.0501 31.8829 29.3702 31.616 29.3702 31.2751V23.3523ZM8.10567 25.4453C6.13882 26.9043 4.56677 28.6955 3.49387 30.6999C2.42098 32.7042 1.87179 34.876 1.88278 37.0709V41.5177H8.10567V25.4453ZM40.9803 33.6423V32.7396C40.9803 32.3335 40.5785 31.9985 40.0913 31.9985C39.9166 31.9987 39.7459 32.0419 39.6004 32.1225C39.4549 32.2032 39.3412 32.3178 39.2734 32.452V33.6438L40.9803 33.6423ZM34.4729 41.4881H40.3402C40.5147 41.4881 40.682 41.4303 40.8054 41.3274C40.9288 41.2246 40.9981 41.0851 40.9981 40.9396V35.7398L40.9856 35.6301C40.956 35.5055 40.8755 35.3934 40.7578 35.3129C40.6401 35.2323 40.4925 35.1883 40.3402 35.1884H34.6507C34.5922 35.1983 34.5326 35.2032 34.4729 35.2032C34.1938 35.2032 33.9982 35.384 33.9929 35.5619V35.5723C33.9919 35.6358 34.0105 35.6985 34.0469 35.7543C34.0833 35.8101 34.1364 35.8572 34.2009 35.891C34.3234 35.959 34.4237 36.0512 34.4929 36.1595C34.562 36.2678 34.5979 36.3887 34.5972 36.5114C34.5965 36.6341 34.5592 36.7547 34.4888 36.8624C34.4184 36.9702 34.317 37.0616 34.1938 37.1287C34.1341 37.1612 34.0846 37.2053 34.0497 37.2572C34.0147 37.309 33.9952 37.3671 33.9929 37.4266C33.9929 37.56 34.0693 37.6593 34.176 37.7156C34.3033 37.7813 34.4086 37.8727 34.4822 37.9813C34.5558 38.09 34.5954 38.2123 34.5971 38.3371C34.5989 38.4619 34.5629 38.585 34.4924 38.695C34.4218 38.8051 34.3191 38.8985 34.1938 38.9667C34.1341 38.9993 34.0846 39.0433 34.0497 39.0952C34.0147 39.1471 33.9952 39.2052 33.9929 39.2646C33.9929 39.398 34.0693 39.4974 34.176 39.5537C34.3025 39.619 34.4073 39.7099 34.4808 39.8178C34.5543 39.9257 34.5941 40.0472 34.5966 40.1713C34.599 40.2954 34.5641 40.418 34.495 40.5279C34.4259 40.6378 34.3247 40.7314 34.2009 40.8003C34.1354 40.8378 34.082 40.8884 34.0457 40.9474C34.0094 41.0064 33.9913 41.072 33.9929 41.1382C34.0035 41.3132 34.1973 41.4881 34.4729 41.4881ZM16.1207 23.2826C15.484 23.0758 14.8817 22.8018 14.3286 22.4674V29.0369C14.3309 29.0655 14.3357 29.0833 14.3428 29.0902C14.3545 29.1018 14.3683 29.1118 14.3837 29.1199C14.4007 29.1256 14.4187 29.1291 14.437 29.1302C14.4453 29.1302 14.4572 29.1278 14.4726 29.1228L18.8873 25.9448C18.2024 25.7206 17.5929 25.3612 17.111 24.8975C16.6292 24.4339 16.2894 23.8798 16.1207 23.2826ZM9.74139 13.4877C9.74139 14.4452 10.6731 15.2219 11.8216 15.2219L12.6804 15.219L12.8848 17.8145C13.0919 19.0419 13.8229 20.1659 14.9438 20.9803C16.0646 21.7946 17.5001 22.2447 18.9868 22.248H22.365C23.852 22.2463 25.2882 21.797 26.4094 20.9826C27.5306 20.1683 28.2613 19.0437 28.4669 17.816L28.6572 15.2694L29.4217 15.216C29.8205 15.188 30.2011 15.0647 30.518 14.8609C30.8348 14.6571 31.0744 14.3814 31.208 14.0669C31.3417 13.7524 31.3636 13.4125 31.2713 13.0878C31.179 12.7632 30.9764 12.4676 30.6876 12.2366C30.6304 12.2043 30.5779 12.1665 30.5312 12.124C30.2801 11.9611 29.9885 11.8472 29.6777 11.7905L28.9274 11.6585L28.9755 11.0063C28.3825 11.1249 27.7588 11.0705 27.2081 10.8522L27.1761 10.8907C27.0971 10.9753 26.9812 11.0304 26.8536 11.044C26.7261 11.0576 26.5972 11.0286 26.4952 10.9633H26.4934L26.7743 10.661L26.4934 10.9619L26.4898 10.9604L26.4596 10.9426L26.3245 10.87C25.5703 10.5033 24.6934 10.3513 23.8265 10.4371C23.7149 10.4481 23.6023 10.4265 23.5076 10.3762C23.4129 10.3258 23.342 10.2498 23.3068 10.1608C23.2717 10.0719 23.2745 9.97558 23.3147 9.88817C23.355 9.80076 23.4303 9.72763 23.5278 9.68116C22.5505 9.5008 21.5524 9.41033 20.5514 9.41138C19.4615 9.41138 18.4712 9.51663 17.5876 9.6782C17.6866 9.7237 17.7635 9.7965 17.8052 9.88413C17.8469 9.97176 17.8508 10.0687 17.8161 10.1585C17.7814 10.2482 17.7104 10.3251 17.6151 10.3759C17.5199 10.4267 17.4065 10.4484 17.2942 10.4371C16.4273 10.3524 15.5508 10.5043 14.7962 10.87L14.661 10.9426L14.6308 10.9604L14.6273 10.9633C14.5724 10.9986 14.5092 11.0237 14.4417 11.037C14.3743 11.0502 14.3043 11.0514 14.2363 11.0403C14.1683 11.0292 14.104 11.0062 14.0475 10.9727C13.9911 10.9392 13.9438 10.8961 13.909 10.8462C13.4111 11.0463 12.8688 11.1071 12.3515 11.0419L12.4012 11.6822L11.5656 11.7667C11.2779 11.7978 11.0008 11.8775 10.7513 12.0009C10.6443 12.1558 10.4738 12.2732 10.2712 12.3315C9.94231 12.6383 9.74139 13.043 9.74139 13.4877ZM13.8663 10.5142L13.6956 10.2563L13.8681 10.5112L13.8663 10.5142ZM18.9868 23.7303C18.7379 23.7303 18.4914 23.7204 18.2472 23.7006C18.499 24.0141 18.8392 24.2712 19.2379 24.4496C19.6366 24.628 20.0817 24.7223 20.5342 24.724C20.9867 24.7258 21.4328 24.635 21.8335 24.4597C22.2342 24.2844 22.5772 24.0299 22.8326 23.7184C22.6769 23.7258 22.5209 23.7297 22.365 23.7303H18.9868ZM22.2138 25.9433L26.6321 29.1228L26.6659 29.1302C26.6842 29.1291 26.7022 29.1256 26.7192 29.1199C26.7346 29.1118 26.7484 29.1018 26.7601 29.0902C26.7688 29.0733 26.7736 29.0552 26.7743 29.0369V22.6156C26.2101 22.9318 25.6026 23.1838 24.9519 23.3716C24.768 23.9487 24.4246 24.4819 23.9491 24.9285C23.4737 25.3751 22.8794 25.7226 22.2138 25.9433ZM26.7708 7.06344C24.8307 6.31115 22.7169 5.92136 20.5772 5.92136C18.4376 5.92136 16.3237 6.31115 14.3837 7.06344L14.3766 7.06641C13.4686 7.41578 12.6241 7.86986 11.8678 8.41529L12.067 8.62281C12.3515 8.91334 12.8422 8.98893 13.2191 8.81402L13.2227 8.81254C15.4808 7.78393 18.0138 7.24707 20.587 7.25169C23.9616 7.25169 26.5094 8.14847 27.9513 8.81254H27.9549C28.1383 8.89817 28.3522 8.92684 28.5586 8.89346C28.7649 8.86008 28.9504 8.76681 29.0821 8.63022L29.0857 8.62577L29.2884 8.41677C28.5244 7.87514 27.6778 7.42009 26.7708 7.06344ZM18.2401 35.9443C18.2401 34.8919 17.2089 34.0322 15.9465 34.0322H13.3684C12.1061 34.0322 11.0749 34.8919 11.0749 35.9443C11.0749 36.9967 12.1061 37.8565 13.3684 37.8565H15.9465C17.2266 37.8565 18.2401 37.0116 18.2401 35.9443Z"/>
</mask>
<path d="M42.7707 35.5989C42.7766 35.6434 42.7784 35.6884 42.776 35.7338V40.9396C42.776 41.4782 42.5194 41.9947 42.0626 42.3756C41.6058 42.7564 40.9862 42.9704 40.3402 42.9704H40.3296C40.2521 42.9892 40.172 42.9992 40.0913 43H0.993795C0.758022 43 0.531906 42.9219 0.365189 42.7829C0.198472 42.6439 0.104811 42.4554 0.104811 42.2589V37.0709C0.0875942 33.8099 1.19956 30.614 3.30723 27.8669C5.41491 25.1198 8.42874 22.9382 11.987 21.5839C11.9034 21.4871 11.8234 21.3883 11.7469 21.2875C10.8215 20.9917 10.0235 20.4716 9.45594 19.7941C8.88837 19.1167 8.57721 18.3131 8.5626 17.4869V16.4285C8.09593 16.092 7.73137 15.6682 7.4987 15.1918C7.26603 14.7153 7.17186 14.1998 7.22388 13.6872C7.27589 13.1746 7.47262 12.6796 7.79799 12.2425C8.12336 11.8054 8.56814 11.4387 9.09599 11.1723V9.32096C8.79939 8.16058 8.80083 6.96099 9.10023 5.80111C9.39962 4.64122 9.99019 3.54733 10.8331 2.59138C11.8208 1.71564 13.0268 1.031 14.3661 0.585657C15.7054 0.14031 17.1455 -0.0549263 18.585 0.013686H22.5908C24.0325 -0.0556692 25.475 0.139175 26.8167 0.584514C28.1585 1.02985 29.3669 1.71487 30.3569 2.59138C31.2087 3.56721 31.8027 4.68249 32.0996 5.86369C32.3966 7.04488 32.3898 8.26514 32.0798 9.44399V11.1812C32.6007 11.4474 33.0396 11.8115 33.3613 12.2446C33.683 12.6776 33.8785 13.1674 33.9323 13.6747C33.986 14.1821 33.8965 14.6929 33.6708 15.1662C33.4451 15.6396 33.0896 16.0622 32.6327 16.4004V17.4869C32.6314 18.2612 32.3645 19.0191 31.8637 19.6712C31.3628 20.3233 30.6488 20.8424 29.8058 21.1674C29.6777 21.3482 29.5385 21.5236 29.3879 21.6936C30.2959 22.0642 31.1653 22.4871 31.9962 22.9625C31.7082 23.4131 31.5019 23.8963 31.3846 24.3988L31.3704 24.3899C31.2981 24.6992 31.2595 25.0154 31.2548 25.3386C31.2474 26.0205 31.4023 26.697 31.7106 27.3287C32.0188 27.9605 32.4742 28.535 33.0506 29.0191V34.1359C33.3947 33.9093 33.8091 33.7689 34.2453 33.7313C34.3196 33.7147 34.3961 33.7062 34.4729 33.7061H35.7175V29.0458C35.7175 28.8975 35.6108 28.7493 35.4508 28.6752C34.7863 28.3901 34.2184 27.9705 33.799 27.4549C33.3796 26.9393 33.1223 26.3441 33.0506 25.7239V25.0569C33.1148 24.4487 33.3597 23.8633 33.7632 23.3538C34.1668 22.8442 34.7162 22.4265 35.3619 22.1383C35.6997 21.9901 36.1264 22.1976 36.1264 22.5237V24.8361C36.1264 25.4438 36.6954 25.933 37.4244 25.9478C38.1711 25.9626 38.7756 25.4438 38.7756 24.8212V22.5237C38.7756 22.1976 39.2023 22.0049 39.5401 22.1531C40.9269 22.7757 41.8693 24.006 41.8871 25.3845C41.8871 26.7927 40.9447 28.023 39.5401 28.6455C39.3801 28.7197 39.2734 28.8679 39.2734 29.0161V30.6244C39.533 30.5532 39.8056 30.5172 40.0913 30.5162C41.5599 30.5162 42.7583 31.5152 42.7583 32.7396V35.4893L42.7707 35.5989ZM29.3702 23.3523C29.1011 23.2307 28.8285 23.1156 28.5523 23.0069V29.0369C28.5523 30.322 26.8312 31.0543 25.5866 30.3265L25.5511 30.3042L20.7079 26.8164C20.6644 26.7852 20.6089 26.768 20.5514 26.768C20.494 26.768 20.4385 26.7852 20.395 26.8164L15.5518 30.3042L15.5162 30.325C15.234 30.491 14.9024 30.589 14.5578 30.6084C14.2132 30.6277 13.8688 30.5675 13.5625 30.4344C13.2562 30.3014 12.9997 30.1006 12.8212 29.8541C12.6427 29.6076 12.5491 29.3248 12.5506 29.0369V23.001C12.2922 23.1028 12.0373 23.2085 11.7861 23.3182V31.2751C11.7861 31.616 12.1061 31.8829 12.515 31.8829H28.6412C29.0501 31.8829 29.3702 31.616 29.3702 31.2751V23.3523ZM8.10567 25.4453C6.13882 26.9043 4.56677 28.6955 3.49387 30.6999C2.42098 32.7042 1.87179 34.876 1.88278 37.0709V41.5177H8.10567V25.4453ZM40.9803 33.6423V32.7396C40.9803 32.3335 40.5785 31.9985 40.0913 31.9985C39.9166 31.9987 39.7459 32.0419 39.6004 32.1225C39.4549 32.2032 39.3412 32.3178 39.2734 32.452V33.6438L40.9803 33.6423ZM34.4729 41.4881H40.3402C40.5147 41.4881 40.682 41.4303 40.8054 41.3274C40.9288 41.2246 40.9981 41.0851 40.9981 40.9396V35.7398L40.9856 35.6301C40.956 35.5055 40.8755 35.3934 40.7578 35.3129C40.6401 35.2323 40.4925 35.1883 40.3402 35.1884H34.6507C34.5922 35.1983 34.5326 35.2032 34.4729 35.2032C34.1938 35.2032 33.9982 35.384 33.9929 35.5619V35.5723C33.9919 35.6358 34.0105 35.6985 34.0469 35.7543C34.0833 35.8101 34.1364 35.8572 34.2009 35.891C34.3234 35.959 34.4237 36.0512 34.4929 36.1595C34.562 36.2678 34.5979 36.3887 34.5972 36.5114C34.5965 36.6341 34.5592 36.7547 34.4888 36.8624C34.4184 36.9702 34.317 37.0616 34.1938 37.1287C34.1341 37.1612 34.0846 37.2053 34.0497 37.2572C34.0147 37.309 33.9952 37.3671 33.9929 37.4266C33.9929 37.56 34.0693 37.6593 34.176 37.7156C34.3033 37.7813 34.4086 37.8727 34.4822 37.9813C34.5558 38.09 34.5954 38.2123 34.5971 38.3371C34.5989 38.4619 34.5629 38.585 34.4924 38.695C34.4218 38.8051 34.3191 38.8985 34.1938 38.9667C34.1341 38.9993 34.0846 39.0433 34.0497 39.0952C34.0147 39.1471 33.9952 39.2052 33.9929 39.2646C33.9929 39.398 34.0693 39.4974 34.176 39.5537C34.3025 39.619 34.4073 39.7099 34.4808 39.8178C34.5543 39.9257 34.5941 40.0472 34.5966 40.1713C34.599 40.2954 34.5641 40.418 34.495 40.5279C34.4259 40.6378 34.3247 40.7314 34.2009 40.8003C34.1354 40.8378 34.082 40.8884 34.0457 40.9474C34.0094 41.0064 33.9913 41.072 33.9929 41.1382C34.0035 41.3132 34.1973 41.4881 34.4729 41.4881ZM16.1207 23.2826C15.484 23.0758 14.8817 22.8018 14.3286 22.4674V29.0369C14.3309 29.0655 14.3357 29.0833 14.3428 29.0902C14.3545 29.1018 14.3683 29.1118 14.3837 29.1199C14.4007 29.1256 14.4187 29.1291 14.437 29.1302C14.4453 29.1302 14.4572 29.1278 14.4726 29.1228L18.8873 25.9448C18.2024 25.7206 17.5929 25.3612 17.111 24.8975C16.6292 24.4339 16.2894 23.8798 16.1207 23.2826ZM9.74139 13.4877C9.74139 14.4452 10.6731 15.2219 11.8216 15.2219L12.6804 15.219L12.8848 17.8145C13.0919 19.0419 13.8229 20.1659 14.9438 20.9803C16.0646 21.7946 17.5001 22.2447 18.9868 22.248H22.365C23.852 22.2463 25.2882 21.797 26.4094 20.9826C27.5306 20.1683 28.2613 19.0437 28.4669 17.816L28.6572 15.2694L29.4217 15.216C29.8205 15.188 30.2011 15.0647 30.518 14.8609C30.8348 14.6571 31.0744 14.3814 31.208 14.0669C31.3417 13.7524 31.3636 13.4125 31.2713 13.0878C31.179 12.7632 30.9764 12.4676 30.6876 12.2366C30.6304 12.2043 30.5779 12.1665 30.5312 12.124C30.2801 11.9611 29.9885 11.8472 29.6777 11.7905L28.9274 11.6585L28.9755 11.0063C28.3825 11.1249 27.7588 11.0705 27.2081 10.8522L27.1761 10.8907C27.0971 10.9753 26.9812 11.0304 26.8536 11.044C26.7261 11.0576 26.5972 11.0286 26.4952 10.9633H26.4934L26.7743 10.661L26.4934 10.9619L26.4898 10.9604L26.4596 10.9426L26.3245 10.87C25.5703 10.5033 24.6934 10.3513 23.8265 10.4371C23.7149 10.4481 23.6023 10.4265 23.5076 10.3762C23.4129 10.3258 23.342 10.2498 23.3068 10.1608C23.2717 10.0719 23.2745 9.97558 23.3147 9.88817C23.355 9.80076 23.4303 9.72763 23.5278 9.68116C22.5505 9.5008 21.5524 9.41033 20.5514 9.41138C19.4615 9.41138 18.4712 9.51663 17.5876 9.6782C17.6866 9.7237 17.7635 9.7965 17.8052 9.88413C17.8469 9.97176 17.8508 10.0687 17.8161 10.1585C17.7814 10.2482 17.7104 10.3251 17.6151 10.3759C17.5199 10.4267 17.4065 10.4484 17.2942 10.4371C16.4273 10.3524 15.5508 10.5043 14.7962 10.87L14.661 10.9426L14.6308 10.9604L14.6273 10.9633C14.5724 10.9986 14.5092 11.0237 14.4417 11.037C14.3743 11.0502 14.3043 11.0514 14.2363 11.0403C14.1683 11.0292 14.104 11.0062 14.0475 10.9727C13.9911 10.9392 13.9438 10.8961 13.909 10.8462C13.4111 11.0463 12.8688 11.1071 12.3515 11.0419L12.4012 11.6822L11.5656 11.7667C11.2779 11.7978 11.0008 11.8775 10.7513 12.0009C10.6443 12.1558 10.4738 12.2732 10.2712 12.3315C9.94231 12.6383 9.74139 13.043 9.74139 13.4877ZM13.8663 10.5142L13.6956 10.2563L13.8681 10.5112L13.8663 10.5142ZM18.9868 23.7303C18.7379 23.7303 18.4914 23.7204 18.2472 23.7006C18.499 24.0141 18.8392 24.2712 19.2379 24.4496C19.6366 24.628 20.0817 24.7223 20.5342 24.724C20.9867 24.7258 21.4328 24.635 21.8335 24.4597C22.2342 24.2844 22.5772 24.0299 22.8326 23.7184C22.6769 23.7258 22.5209 23.7297 22.365 23.7303H18.9868ZM22.2138 25.9433L26.6321 29.1228L26.6659 29.1302C26.6842 29.1291 26.7022 29.1256 26.7192 29.1199C26.7346 29.1118 26.7484 29.1018 26.7601 29.0902C26.7688 29.0733 26.7736 29.0552 26.7743 29.0369V22.6156C26.2101 22.9318 25.6026 23.1838 24.9519 23.3716C24.768 23.9487 24.4246 24.4819 23.9491 24.9285C23.4737 25.3751 22.8794 25.7226 22.2138 25.9433ZM26.7708 7.06344C24.8307 6.31115 22.7169 5.92136 20.5772 5.92136C18.4376 5.92136 16.3237 6.31115 14.3837 7.06344L14.3766 7.06641C13.4686 7.41578 12.6241 7.86986 11.8678 8.41529L12.067 8.62281C12.3515 8.91334 12.8422 8.98893 13.2191 8.81402L13.2227 8.81254C15.4808 7.78393 18.0138 7.24707 20.587 7.25169C23.9616 7.25169 26.5094 8.14847 27.9513 8.81254H27.9549C28.1383 8.89817 28.3522 8.92684 28.5586 8.89346C28.7649 8.86008 28.9504 8.76681 29.0821 8.63022L29.0857 8.62577L29.2884 8.41677C28.5244 7.87514 27.6778 7.42009 26.7708 7.06344ZM18.2401 35.9443C18.2401 34.8919 17.2089 34.0322 15.9465 34.0322H13.3684C12.1061 34.0322 11.0749 34.8919 11.0749 35.9443C11.0749 36.9967 12.1061 37.8565 13.3684 37.8565H15.9465C17.2266 37.8565 18.2401 37.0116 18.2401 35.9443Z" fill="white"/>
<path d="M14.6273 10.9633L14.811 10.7938L14.5265 10.4855L14.3428 10.655L14.159 10.8246L14.4435 11.1329L14.6273 10.9633ZM42.7707 35.5989L42.2738 35.6553L42.2751 35.665L42.7707 35.5989ZM42.776 35.7338L42.2767 35.7078L42.276 35.7208V35.7338H42.776ZM42.776 40.9396H42.276H42.776ZM40.3296 42.9704V42.4704H40.2696L40.2113 42.4845L40.3296 42.9704ZM40.0913 43V43.5L40.0964 43.5L40.0913 43ZM0.104811 37.0709H0.604818L0.604804 37.0682L0.104811 37.0709ZM11.987 21.5839L12.1648 22.0512L12.8318 21.7973L12.3654 21.2572L11.987 21.5839ZM11.7469 21.2875L12.1454 20.9854L12.0498 20.8594L11.8992 20.8112L11.7469 21.2875ZM8.5626 17.4869H8.06252L8.06268 17.4957L8.5626 17.4869ZM8.5626 16.4285H9.0626V16.1726L8.85505 16.023L8.5626 16.4285ZM9.09599 11.1723L9.32125 11.6187L9.59599 11.4801V11.1723H9.09599ZM9.09599 9.32096H9.59599V9.25807L9.58042 9.19714L9.09599 9.32096ZM10.8331 2.59138L10.5014 2.21725L10.4784 2.23765L10.458 2.2607L10.8331 2.59138ZM18.585 0.013686L18.5612 0.513119L18.5731 0.513686H18.585V0.013686ZM22.5908 0.013686V0.513686H22.6028L22.6148 0.513108L22.5908 0.013686ZM30.3569 2.59138L30.7336 2.26258L30.7125 2.23834L30.6884 2.21701L30.3569 2.59138ZM32.0798 9.44399L31.5962 9.31681L31.5798 9.37934V9.44399H32.0798ZM32.0798 11.1812H31.5798V11.4873L31.8523 11.6265L32.0798 11.1812ZM32.6327 16.4004L32.3353 15.9985L32.1327 16.1484V16.4004H32.6327ZM32.6327 17.4869L33.1327 17.4878V17.4869H32.6327ZM31.8637 19.6712L32.2602 19.9757L31.8637 19.6712ZM29.8058 21.1674L29.6259 20.7009L29.4849 20.7552L29.3977 20.8785L29.8058 21.1674ZM29.3879 21.6936L29.0136 21.3621L28.5461 21.89L29.199 22.1565L29.3879 21.6936ZM31.9962 22.9625L32.4175 23.2317L32.7004 22.7892L32.2445 22.5284L31.9962 22.9625ZM31.3846 24.3988L31.1195 24.8227L31.7125 25.1935L31.8715 24.5125L31.3846 24.3988ZM31.3704 24.3899L31.6354 23.9659L31.0426 23.5953L30.8835 24.2761L31.3704 24.3899ZM31.2548 25.3386L30.7549 25.3312L30.7548 25.3331L31.2548 25.3386ZM33.0506 29.0191H33.5506V28.7861L33.3721 28.6362L33.0506 29.0191ZM33.0506 34.1359H32.5506V35.0639L33.3256 34.5535L33.0506 34.1359ZM34.2453 33.7313L34.2883 34.2294L34.3216 34.2265L34.3542 34.2193L34.2453 33.7313ZM34.4729 33.7061V33.2061H34.4719L34.4729 33.7061ZM35.7175 33.7061V34.2061H36.2175V33.7061H35.7175ZM35.4508 28.6752L35.6609 28.2215L35.6545 28.2185L35.6479 28.2157L35.4508 28.6752ZM33.0506 25.7239H32.5506V25.7528L32.5539 25.7814L33.0506 25.7239ZM33.0506 25.0569L32.5533 25.0044L32.5506 25.0306V25.0569H33.0506ZM35.3619 22.1383L35.161 21.6804L35.1581 21.6817L35.3619 22.1383ZM37.4244 25.9478L37.4142 26.4477L37.4144 26.4477L37.4244 25.9478ZM39.5401 22.1531L39.7449 21.697L39.741 21.6953L39.5401 22.1531ZM41.8871 25.3845H42.3871L42.387 25.3781L41.8871 25.3845ZM39.5401 28.6455L39.3375 28.1884L39.33 28.1918L39.5401 28.6455ZM39.2734 30.6244H38.7734V31.2799L39.4056 31.1066L39.2734 30.6244ZM40.0913 30.5162V30.0162L40.0896 30.0162L40.0913 30.5162ZM42.7583 35.4893H42.2583V35.5175L42.2614 35.5456L42.7583 35.4893ZM29.3702 23.3523H29.8702V23.0295L29.576 22.8966L29.3702 23.3523ZM28.5523 23.0069L28.7354 22.5417L28.0523 22.2728V23.0069H28.5523ZM25.5866 30.3265L25.3215 30.7504L25.3278 30.7543L25.3342 30.7581L25.5866 30.3265ZM25.5511 30.3042L25.2589 30.71L25.2721 30.7195L25.286 30.7282L25.5511 30.3042ZM20.7079 26.8164L21.0001 26.4107L20.9991 26.41L20.7079 26.8164ZM20.395 26.8164L20.1037 26.41L20.1028 26.4107L20.395 26.8164ZM15.5518 30.3042L15.8038 30.7361L15.8245 30.724L15.844 30.71L15.5518 30.3042ZM15.5162 30.325L15.2642 29.8931L15.2627 29.894L15.5162 30.325ZM12.5506 29.0369L13.0506 29.0394V29.0369H12.5506ZM12.5506 23.001H13.0506V22.2666L12.3673 22.5358L12.5506 23.001ZM11.7861 23.3182L11.586 22.86L11.2861 22.9909V23.3182H11.7861ZM8.10567 25.4453H8.60567V24.4518L7.80777 25.0437L8.10567 25.4453ZM1.88278 37.0709H2.38279L2.38277 37.0684L1.88278 37.0709ZM1.88278 41.5177H1.38278V42.0177H1.88278V41.5177ZM8.10567 41.5177V42.0177H8.60567V41.5177H8.10567ZM40.9803 33.6423L40.9807 34.1423L41.4803 34.1419V33.6423H40.9803ZM40.0913 31.9985V31.4985L40.0906 31.4985L40.0913 31.9985ZM39.2734 32.452L38.8271 32.2267L38.7734 32.333V32.452H39.2734ZM39.2734 33.6438H38.7734V34.1442L39.2739 34.1438L39.2734 33.6438ZM40.9981 40.9396H41.4981H40.9981ZM40.9981 35.7398H41.4981V35.7115L41.4949 35.6834L40.9981 35.7398ZM40.9856 35.6301L41.4824 35.5737L41.479 35.5437L41.472 35.5143L40.9856 35.6301ZM40.3402 35.1884V35.6884H40.3403L40.3402 35.1884ZM34.6507 35.1884V34.6884H34.6087L34.5673 34.6954L34.6507 35.1884ZM34.4729 35.2032L34.4733 34.7032H34.4729V35.2032ZM33.9929 35.5619L33.4931 35.5469L33.4929 35.5544V35.5619H33.9929ZM33.9929 35.5723L34.4929 35.5802V35.5723H33.9929ZM34.2009 35.891L34.4436 35.4537L34.4329 35.448L34.2009 35.891ZM34.1938 37.1287L33.955 36.6894L33.9544 36.6897L34.1938 37.1287ZM33.9929 37.4266L33.4933 37.4069L33.4929 37.4168V37.4266H33.9929ZM34.176 37.7156L33.9425 38.1578L33.9468 38.16L34.176 37.7156ZM34.1938 38.9667L33.955 38.5274L33.9544 38.5277L34.1938 38.9667ZM33.9929 39.2646L33.4933 39.245L33.4929 39.2548V39.2646H33.9929ZM34.176 39.5537L33.9425 39.9958L33.9465 39.9979L34.176 39.5537ZM34.2009 40.8003L33.9579 40.3632L33.9523 40.3665L34.2009 40.8003ZM33.9929 41.1382L33.493 41.1505L33.4932 41.1596L33.4938 41.1687L33.9929 41.1382ZM16.1207 23.2826L16.6019 23.1467L16.5293 22.8896L16.2752 22.8071L16.1207 23.2826ZM14.3286 22.4674L14.5872 22.0395L13.8286 21.5808V22.4674H14.3286ZM14.3286 29.0369H13.8286V29.0575L13.8303 29.0781L14.3286 29.0369ZM14.3428 29.0902L14.6938 28.7341L14.6914 28.7318L14.3428 29.0902ZM14.3837 29.1199L14.1509 29.5624L14.1863 29.581L14.2241 29.5937L14.3837 29.1199ZM14.437 29.1302L14.4059 29.6293L14.4214 29.6302H14.437V29.1302ZM14.4726 29.1228L14.6252 29.599L14.7005 29.5748L14.7647 29.5286L14.4726 29.1228ZM18.8873 25.9448L19.1794 26.3506L19.9779 25.7758L19.0428 25.4696L18.8873 25.9448ZM11.8216 15.2219V15.722L11.8233 15.7219L11.8216 15.2219ZM12.6804 15.219L13.1788 15.1797L13.1424 14.7174L12.6786 14.719L12.6804 15.219ZM12.8848 17.8145L12.3864 17.8537L12.3881 17.8758L12.3918 17.8976L12.8848 17.8145ZM18.9868 22.248L18.9857 22.748H18.9868V22.248ZM22.365 22.248V22.748L22.3655 22.748L22.365 22.248ZM28.4669 17.816L28.9601 17.8986L28.9639 17.876L28.9656 17.8532L28.4669 17.816ZM28.6572 15.2694L28.6224 14.7706L28.1908 14.8007L28.1586 15.2321L28.6572 15.2694ZM29.4217 15.216L29.4565 15.7148L29.4567 15.7148L29.4217 15.216ZM30.6876 12.2366L31 11.8462L30.9686 11.8211L30.9337 11.8013L30.6876 12.2366ZM30.5312 12.124L30.8676 11.7541L30.8374 11.7266L30.8032 11.7044L30.5312 12.124ZM29.6777 11.7905L29.7676 11.2986L29.7643 11.298L29.6777 11.7905ZM28.9274 11.6585L28.4288 11.6218L28.3956 12.0727L28.8409 12.151L28.9274 11.6585ZM28.9755 11.0063L29.4741 11.043L29.5224 10.3871L28.8774 10.516L28.9755 11.0063ZM27.2081 10.8522L27.3924 10.3874L27.0552 10.2537L26.8235 10.5327L27.2081 10.8522ZM27.1761 10.8907L27.5415 11.232L27.5515 11.2214L27.5608 11.2101L27.1761 10.8907ZM26.4952 10.9633L26.7647 10.5422L26.6415 10.4633H26.4952V10.9633ZM26.4934 10.9633L26.1271 10.623L25.3464 11.4633H26.4934V10.9633ZM26.7743 10.661L27.1406 11.0013L26.4088 10.3197L26.7743 10.661ZM26.4934 10.9619L26.301 11.4234L26.6218 11.5571L26.8589 11.3031L26.4934 10.9619ZM26.4898 10.9604L26.2363 11.3913L26.2658 11.4087L26.2975 11.4219L26.4898 10.9604ZM26.4596 10.9426L26.7132 10.5117L26.7049 10.5068L26.6964 10.5022L26.4596 10.9426ZM26.3245 10.87L26.5612 10.4295L26.5523 10.4247L26.5431 10.4203L26.3245 10.87ZM23.8265 10.4371L23.8753 10.9347L23.8757 10.9347L23.8265 10.4371ZM23.5278 9.68116L23.7429 10.1325L25.1346 9.46927L23.6185 9.18946L23.5278 9.68116ZM20.5514 9.41138V9.91138H20.552L20.5514 9.41138ZM17.5876 9.6782L17.4976 9.18635L15.9397 9.47121L17.3788 10.1325L17.5876 9.6782ZM17.2942 10.4371L17.3441 9.93962L17.3428 9.9395L17.2942 10.4371ZM14.7962 10.87L14.5781 10.42L14.5687 10.4246L14.5594 10.4295L14.7962 10.87ZM14.661 10.9426L14.4243 10.5022L14.4158 10.5068L14.4074 10.5117L14.661 10.9426ZM14.6308 10.9604L14.3772 10.5295L14.342 10.5502L14.3106 10.5763L14.6308 10.9604ZM14.6273 10.9633L14.8976 11.384L14.9236 11.3672L14.9474 11.3474L14.6273 10.9633ZM13.909 10.8462L14.3187 10.5597L14.0911 10.2342L13.7225 10.3823L13.909 10.8462ZM12.3515 11.0419L12.414 10.5458L11.8054 10.4691L11.853 11.0807L12.3515 11.0419ZM12.4012 11.6822L12.4515 12.1797L12.9376 12.1306L12.8997 11.6435L12.4012 11.6822ZM11.5656 11.7667L11.5153 11.2693L11.5119 11.2696L11.5656 11.7667ZM10.7513 12.0009L10.5296 11.5528L10.4136 11.6102L10.3399 11.7167L10.7513 12.0009ZM10.2712 12.3315L10.1329 11.851L10.0178 11.8842L9.93017 11.9659L10.2712 12.3315ZM13.8663 10.5142L13.4493 10.7901L13.887 11.4515L14.295 10.7715L13.8663 10.5142ZM13.6956 10.2563L14.1097 9.97614L13.2786 10.5322L13.6956 10.2563ZM13.8681 10.5112L14.2968 10.7685L14.4608 10.4951L14.2822 10.2311L13.8681 10.5112ZM18.2472 23.7006L18.2875 23.2023L17.13 23.1086L17.8574 24.0138L18.2472 23.7006ZM22.8326 23.7184L23.2192 24.0354L23.9322 23.1658L22.8089 23.219L22.8326 23.7184ZM22.365 23.7303V24.2303L22.3667 24.2303L22.365 23.7303ZM22.2138 25.9433L22.0565 25.4687L21.1268 25.777L21.9218 26.3492L22.2138 25.9433ZM26.6321 29.1228L26.34 29.5287L26.424 29.5891L26.525 29.6112L26.6321 29.1228ZM26.6659 29.1302L26.5587 29.6186L26.6271 29.6336L26.697 29.6293L26.6659 29.1302ZM26.7192 29.1199L26.8788 29.5937L26.9166 29.581L26.9519 29.5624L26.7192 29.1199ZM26.7601 29.0902L27.1111 29.4463L27.1683 29.3899L27.205 29.3184L26.7601 29.0902ZM26.7743 29.0369L27.2739 29.0568L27.2743 29.0468V29.0369H26.7743ZM26.7743 22.6156H27.2743V21.7622L26.5299 22.1794L26.7743 22.6156ZM24.9519 23.3716L24.8133 22.8912L24.5566 22.9652L24.4755 23.2198L24.9519 23.3716ZM26.7708 7.06344L26.9537 6.59811L26.9515 6.59726L26.7708 7.06344ZM20.5772 5.92136V5.42136V5.92136ZM14.3837 7.06344L14.2028 6.59712L14.1913 6.60193L14.3837 7.06344ZM14.3766 7.06641L14.5562 7.53323L14.5689 7.52791L14.3766 7.06641ZM11.8678 8.41529L11.5754 8.00975L11.1087 8.34632L11.5071 8.76147L11.8678 8.41529ZM12.067 8.62281L11.7062 8.96901L11.7097 8.97262L12.067 8.62281ZM13.2191 8.81402L13.0267 8.35251L13.0176 8.35631L13.0086 8.36047L13.2191 8.81402ZM13.2227 8.81254L13.415 9.27405L13.4225 9.27092L13.4299 9.26756L13.2227 8.81254ZM20.587 7.25169L20.5861 7.75169H20.587V7.25169ZM27.9513 8.81254L27.7422 9.26669L27.8417 9.31254H27.9513V8.81254ZM27.9549 8.81254L28.1664 8.35948L28.0659 8.31254H27.9549V8.81254ZM29.0821 8.63022L29.4421 8.97727L29.4582 8.96053L29.4727 8.94236L29.0821 8.63022ZM29.0857 8.62577L28.7267 8.27768L28.7101 8.2949L28.6951 8.31363L29.0857 8.62577ZM29.2884 8.41677L29.6473 8.76486L30.0533 8.34618L29.5775 8.00887L29.2884 8.41677ZM42.7707 35.5989L42.2751 35.665C42.2769 35.6785 42.2775 35.6926 42.2767 35.7078L42.776 35.7338L43.2754 35.7599C43.2793 35.6841 43.2764 35.6083 43.2663 35.5329L42.7707 35.5989ZM42.776 35.7338H42.276V40.9396H42.776H43.276V35.7338H42.776ZM42.776 40.9396H42.276C42.276 41.3132 42.0987 41.6945 41.7424 41.9915L42.0626 42.3756L42.3828 42.7596C42.9401 42.295 43.276 41.6432 43.276 40.9396H42.776ZM42.0626 42.3756L41.7424 41.9915C41.3835 42.2908 40.8801 42.4704 40.3402 42.4704V42.9704V43.4704C41.0924 43.4704 41.8281 43.222 42.3828 42.7596L42.0626 42.3756ZM40.3402 42.9704V42.4704H40.3296V42.9704V43.4704H40.3402V42.9704ZM40.3296 42.9704L40.2113 42.4845C40.1714 42.4943 40.1292 42.4996 40.0862 42.5L40.0913 43L40.0964 43.5C40.2147 43.4988 40.3329 43.4841 40.4478 43.4562L40.3296 42.9704ZM40.0913 43V42.5H0.993795V43V43.5H40.0913V43ZM0.993795 43V42.5C0.864193 42.5 0.754226 42.4563 0.685363 42.3989L0.365189 42.7829L0.045014 43.167C0.309585 43.3875 0.65185 43.5 0.993795 43.5V43ZM0.365189 42.7829L0.685363 42.3989C0.619156 42.3437 0.604811 42.2904 0.604811 42.2589H0.104811H-0.395189C-0.395189 42.6204 -0.222212 42.9442 0.045014 43.167L0.365189 42.7829ZM0.104811 42.2589H0.604811V37.0709H0.104811H-0.395189V42.2589H0.104811ZM0.104811 37.0709L0.604804 37.0682C0.588211 33.9253 1.65933 30.8362 3.70393 28.1713L3.30723 27.8669L2.91054 27.5626C0.739786 30.3919 -0.413022 33.6944 -0.395182 37.0735L0.104811 37.0709ZM3.30723 27.8669L3.70393 28.1713C5.74964 25.505 8.68432 23.3759 12.1648 22.0512L11.987 21.5839L11.8091 21.1166C8.17316 22.5005 5.08018 24.7347 2.91054 27.5626L3.30723 27.8669ZM11.987 21.5839L12.3654 21.2572C12.2887 21.1683 12.2153 21.0777 12.1454 20.9854L11.7469 21.2875L11.3485 21.5895C11.4314 21.6989 11.5181 21.806 11.6085 21.9107L11.987 21.5839ZM11.7469 21.2875L11.8992 20.8112C11.0546 20.5413 10.34 20.0708 9.8392 19.473L9.45594 19.7941L9.07268 20.1153C9.707 20.8723 10.5884 21.4421 11.5947 21.7637L11.7469 21.2875ZM9.45594 19.7941L9.8392 19.473C9.33961 18.8768 9.07497 18.1816 9.06252 17.478L8.5626 17.4869L8.06268 17.4957C8.07946 18.4446 8.43713 19.3567 9.07268 20.1153L9.45594 19.7941ZM8.5626 17.4869H9.0626V16.4285H8.5626H8.0626V17.4869H8.5626ZM8.5626 16.4285L8.85505 16.023C8.44936 15.7304 8.14148 15.3686 7.94799 14.9724L7.4987 15.1918L7.04941 15.4112C7.32125 15.9678 7.74249 16.4536 8.27015 16.8341L8.5626 16.4285ZM7.4987 15.1918L7.94799 14.9724C7.75495 14.5771 7.679 14.1548 7.72132 13.7377L7.22388 13.6872L6.72643 13.6367C6.66472 14.2448 6.77711 14.8536 7.04941 15.4112L7.4987 15.1918ZM7.22388 13.6872L7.72132 13.7377C7.76368 13.3202 7.9244 12.91 8.19906 12.5411L7.79799 12.2425L7.39692 11.9439C7.02084 12.4491 6.7881 13.029 6.72643 13.6367L7.22388 13.6872ZM7.79799 12.2425L8.19906 12.5411C8.47423 12.1714 8.85667 11.8532 9.32125 11.6187L9.09599 11.1723L8.87073 10.726C8.27961 11.0243 7.77248 11.4394 7.39692 11.9439L7.79799 12.2425ZM9.09599 11.1723H9.59599V9.32096H9.09599H8.59599V11.1723H9.09599ZM9.09599 9.32096L9.58042 9.19714C9.30468 8.1184 9.30602 7.00439 9.58436 5.92607L9.10023 5.80111L8.6161 5.67614C8.29565 6.91759 8.29409 8.20276 8.61157 9.44479L9.09599 9.32096ZM9.10023 5.80111L9.58436 5.92607C9.86283 4.84724 10.4139 3.82285 11.2081 2.92206L10.8331 2.59138L10.458 2.2607C9.56652 3.27181 8.93641 4.43521 8.6161 5.67614L9.10023 5.80111ZM10.8331 2.59138L11.1648 2.96551C12.0985 2.13767 13.2442 1.48562 14.5238 1.06011L14.3661 0.585657L14.2083 0.1112C12.8093 0.576387 11.5431 1.29361 10.5014 2.21725L10.8331 2.59138ZM14.3661 0.585657L14.5238 1.06011C15.8034 0.634624 17.1819 0.447377 18.5612 0.513119L18.585 0.013686L18.6088 -0.485747C17.109 -0.55723 15.6073 -0.354003 14.2083 0.1112L14.3661 0.585657ZM18.585 0.013686V0.513686H22.5908V0.013686V-0.486314H18.585V0.013686ZM22.5908 0.013686L22.6148 0.513108C23.9963 0.44665 25.3772 0.633535 26.6592 1.05906L26.8167 0.584514L26.9742 0.109971C25.5728 -0.355184 24.0687 -0.557988 22.5667 -0.485737L22.5908 0.013686ZM26.8167 0.584514L26.6592 1.05906C27.9413 1.4846 29.0895 2.13708 30.0255 2.96575L30.3569 2.59138L30.6884 2.21701C29.6443 1.29266 28.3756 0.575111 26.9742 0.109971L26.8167 0.584514ZM30.3569 2.59138L29.9802 2.92018C30.7835 3.84043 31.3382 4.88578 31.6147 5.9856L32.0996 5.86369L32.5846 5.74177C32.2671 4.4792 31.6339 3.29398 30.7336 2.26258L30.3569 2.59138ZM32.0996 5.86369L31.6147 5.9856C31.8911 7.0849 31.8849 8.21947 31.5962 9.31681L32.0798 9.44399L32.5633 9.57118C32.8948 8.31081 32.9021 7.00485 32.5846 5.74177L32.0996 5.86369ZM32.0798 9.44399H31.5798V11.1812H32.0798H32.5798V9.44399H32.0798ZM32.0798 11.1812L31.8523 11.6265C32.3106 11.8606 32.6879 12.1766 32.9599 12.5427L33.3613 12.2446L33.7626 11.9464C33.3913 11.4465 32.8908 11.0341 32.3073 10.736L32.0798 11.1812ZM33.3613 12.2446L32.9599 12.5427C33.2314 12.9082 33.3913 13.3141 33.435 13.7274L33.9323 13.6747L34.4295 13.6221C34.3658 13.0206 34.1345 12.4469 33.7626 11.9464L33.3613 12.2446ZM33.9323 13.6747L33.435 13.7274C33.4788 14.1403 33.4066 14.5586 33.2195 14.9511L33.6708 15.1662L34.1221 15.3814C34.3864 14.8272 34.4932 14.2239 34.4295 13.6221L33.9323 13.6747ZM33.6708 15.1662L33.2195 14.9511C33.0319 15.3444 32.732 15.7048 32.3353 15.9985L32.6327 16.4004L32.9302 16.8023C33.4472 16.4196 33.8583 15.9347 34.1221 15.3814L33.6708 15.1662ZM32.6327 16.4004H32.1327V17.4869H32.6327H33.1327V16.4004H32.6327ZM32.6327 17.4869L32.1327 17.486C32.1316 18.1434 31.9055 18.7959 31.4671 19.3666L31.8637 19.6712L32.2602 19.9757C32.8236 19.2423 33.1312 18.379 33.1327 17.4878L32.6327 17.4869ZM31.8637 19.6712L31.4671 19.3666C31.0277 19.9387 30.3919 20.4056 29.6259 20.7009L29.8058 21.1674L29.9856 21.6339C30.9056 21.2793 31.6979 20.7078 32.2602 19.9757L31.8637 19.6712ZM29.8058 21.1674L29.3977 20.8785C29.2804 21.0442 29.1524 21.2054 29.0136 21.3621L29.3879 21.6936L29.7622 22.0251C29.9245 21.8419 30.0751 21.6523 30.2139 21.4563L29.8058 21.1674ZM29.3879 21.6936L29.199 22.1565C30.087 22.519 30.9366 22.9323 31.7479 23.3965L31.9962 22.9625L32.2445 22.5284C31.394 22.0419 30.5047 21.6094 29.5769 21.2307L29.3879 21.6936ZM31.9962 22.9625L31.5749 22.6932C31.2577 23.1894 31.0285 23.725 30.8977 24.2851L31.3846 24.3988L31.8715 24.5125C31.9754 24.0676 32.1586 23.6367 32.4175 23.2317L31.9962 22.9625ZM31.3846 24.3988L31.6497 23.9748L31.6354 23.9659L31.3704 24.3899L31.1053 24.8138L31.1195 24.8227L31.3846 24.3988ZM31.3704 24.3899L30.8835 24.2761C30.8029 24.6209 30.7601 24.9729 30.7549 25.3312L31.2548 25.3386L31.7547 25.3459C31.759 25.058 31.7932 24.7775 31.8572 24.5037L31.3704 24.3899ZM31.2548 25.3386L30.7548 25.3331C30.7466 26.0954 30.9199 26.8485 31.2612 27.548L31.7106 27.3287L32.1599 27.1095C31.8847 26.5455 31.7483 25.9457 31.7548 25.344L31.2548 25.3386ZM31.7106 27.3287L31.2612 27.548C31.6022 28.247 32.1029 28.8761 32.729 29.4019L33.0506 29.0191L33.3721 28.6362C32.8456 28.1939 32.4354 27.674 32.1599 27.1095L31.7106 27.3287ZM33.0506 29.0191H32.5506V34.1359H33.0506H33.5506V29.0191H33.0506ZM33.0506 34.1359L33.3256 34.5535C33.5959 34.3754 33.9296 34.2604 34.2883 34.2294L34.2453 33.7313L34.2024 33.2331C33.6886 33.2775 33.1935 33.4431 32.7755 33.7184L33.0506 34.1359ZM34.2453 33.7313L34.3542 34.2193C34.3927 34.2107 34.433 34.2062 34.474 34.2061L34.4729 33.7061L34.4719 33.2061C34.3591 33.2063 34.2465 33.2187 34.1365 33.2433L34.2453 33.7313ZM34.4729 33.7061V34.2061H35.7175V33.7061V33.2061H34.4729V33.7061ZM35.7175 33.7061H36.2175V29.0458H35.7175H35.2175V33.7061H35.7175ZM35.7175 29.0458H36.2175C36.2175 28.6609 35.9563 28.3583 35.6609 28.2215L35.4508 28.6752L35.2407 29.1289C35.2451 29.1309 35.2435 29.1319 35.2383 29.1247C35.2336 29.1182 35.2175 29.0921 35.2175 29.0458H35.7175ZM35.4508 28.6752L35.6479 28.2157C35.0511 27.9596 34.5509 27.5869 34.1869 27.1394L33.799 27.4549L33.4111 27.7704C33.8859 28.3542 34.5216 28.8206 35.2537 29.1347L35.4508 28.6752ZM33.799 27.4549L34.1869 27.1394C33.8235 26.6927 33.6073 26.1858 33.5472 25.6665L33.0506 25.7239L32.5539 25.7814C32.6372 26.5023 32.9357 27.1858 33.4111 27.7704L33.799 27.4549ZM33.0506 25.7239H33.5506V25.0569H33.0506H32.5506V25.7239H33.0506ZM33.0506 25.0569L33.5478 25.1094C33.6014 24.6014 33.8066 24.1043 34.1552 23.6642L33.7632 23.3538L33.3713 23.0434C32.9128 23.6223 32.6281 24.296 32.5533 25.0044L33.0506 25.0569ZM33.7632 23.3538L34.1552 23.6642C34.5044 23.2232 34.987 22.8532 35.5657 22.5949L35.3619 22.1383L35.1581 21.6817C34.4454 21.9998 33.8291 22.4652 33.3713 23.0434L33.7632 23.3538ZM35.3619 22.1383L35.5628 22.5962C35.5722 22.5921 35.5855 22.5889 35.6027 22.5897C35.6206 22.5904 35.6369 22.5952 35.6481 22.6007C35.6597 22.6066 35.6568 22.6085 35.6485 22.5969C35.6382 22.5826 35.6264 22.556 35.6264 22.5237H36.1264H36.6264C36.6264 22.1201 36.3615 21.8388 36.0936 21.7055C35.8242 21.5714 35.4777 21.5415 35.161 21.6804L35.3619 22.1383ZM36.1264 22.5237H35.6264V24.8361H36.1264H36.6264V22.5237H36.1264ZM36.1264 24.8361H35.6264C35.6264 25.7932 36.4975 26.429 37.4142 26.4477L37.4244 25.9478L37.4345 25.4479C36.8933 25.4369 36.6264 25.0944 36.6264 24.8361H36.1264ZM37.4244 25.9478L37.4144 26.4477C38.3661 26.4666 39.2756 25.7935 39.2756 24.8212H38.7756H38.2756C38.2756 25.0941 37.9761 25.4586 37.4343 25.4479L37.4244 25.9478ZM38.7756 24.8212H39.2756V22.5237H38.7756H38.2756V24.8212H38.7756ZM38.7756 22.5237H39.2756C39.2756 22.5382 39.2731 22.554 39.2679 22.5693C39.2628 22.5843 39.2561 22.5957 39.2504 22.6035C39.2397 22.6181 39.2343 22.6176 39.2449 22.6125C39.2551 22.6078 39.2716 22.603 39.2914 22.6025C39.3105 22.6019 39.3268 22.6055 39.3392 22.611L39.5401 22.1531L39.741 21.6953C39.4314 21.5594 39.0889 21.5802 38.8175 21.7085C38.5459 21.8369 38.2756 22.1157 38.2756 22.5237H38.7756ZM39.5401 22.1531L39.3354 22.6093C40.5856 23.1705 41.3724 24.2482 41.3871 25.391L41.8871 25.3845L42.387 25.3781C42.3662 23.7638 41.2683 22.3809 39.7449 21.697L39.5401 22.1531ZM41.8871 25.3845H41.3871C41.3871 26.5528 40.6032 27.6274 39.3375 28.1884L39.5401 28.6455L39.7427 29.1026C41.2862 28.4185 42.3871 27.0326 42.3871 25.3845H41.8871ZM39.5401 28.6455L39.33 28.1918C39.0346 28.3286 38.7734 28.6313 38.7734 29.0161H39.2734H39.7734C39.7734 29.0625 39.7573 29.0885 39.7526 29.0951C39.7475 29.1022 39.7459 29.1013 39.7503 29.0992L39.5401 28.6455ZM39.2734 29.0161H38.7734V30.6244H39.2734H39.7734V29.0161H39.2734ZM39.2734 30.6244L39.4056 31.1066C39.6202 31.0478 39.8487 31.017 40.093 31.0162L40.0913 30.5162L40.0896 30.0162C39.7625 30.0173 39.4459 30.0587 39.1413 30.1422L39.2734 30.6244ZM40.0913 30.5162V31.0162C41.3728 31.0162 42.2583 31.8727 42.2583 32.7396H42.7583H43.2583C43.2583 31.1578 41.747 30.0162 40.0913 30.0162V30.5162ZM42.7583 32.7396H42.2583V35.4893H42.7583H43.2583V32.7396H42.7583ZM42.7583 35.4893L42.2614 35.5456L42.2739 35.6553L42.7707 35.5989L43.2675 35.5426L43.2551 35.4329L42.7583 35.4893ZM29.3702 23.3523L29.576 22.8966C29.2994 22.7717 29.0192 22.6534 28.7354 22.5417L28.5523 23.0069L28.3692 23.4722C28.6377 23.5779 28.9028 23.6898 29.1643 23.808L29.3702 23.3523ZM28.5523 23.0069H28.0523V29.0369H28.5523H29.0523V23.0069H28.5523ZM28.5523 29.0369H28.0523C28.0523 29.4285 27.793 29.7812 27.3381 29.9774C26.8839 30.1733 26.3112 30.1709 25.839 29.8948L25.5866 30.3265L25.3342 30.7581C26.1067 31.2098 27.0167 31.2051 27.7342 30.8956C28.4511 30.5864 29.0523 29.9303 29.0523 29.0369H28.5523ZM25.5866 30.3265L25.8517 29.9025L25.8162 29.8803L25.5511 30.3042L25.286 30.7282L25.3215 30.7504L25.5866 30.3265ZM25.5511 30.3042L25.8433 29.8985L21.0001 26.4107L20.7079 26.8164L20.4157 27.2221L25.2589 30.71L25.5511 30.3042ZM20.7079 26.8164L20.9991 26.41C20.8645 26.3135 20.7054 26.268 20.5514 26.268V26.768V27.268C20.5123 27.268 20.4643 27.2569 20.4167 27.2228L20.7079 26.8164ZM20.5514 26.768V26.268C20.3975 26.268 20.2384 26.3135 20.1037 26.41L20.395 26.8164L20.6862 27.2228C20.6386 27.2569 20.5906 27.268 20.5514 27.268V26.768ZM20.395 26.8164L20.1028 26.4107L15.2596 29.8985L15.5518 30.3042L15.844 30.71L20.6872 27.2221L20.395 26.8164ZM15.5518 30.3042L15.2998 29.8724L15.2642 29.8931L15.5162 30.325L15.7683 30.7568L15.8038 30.7361L15.5518 30.3042ZM15.5162 30.325L15.2627 29.894C15.0529 30.0174 14.7993 30.094 14.5298 30.1091L14.5578 30.6084L14.5858 31.1076C15.0055 31.084 15.4152 30.9645 15.7698 30.7559L15.5162 30.325ZM14.5578 30.6084L14.5298 30.1091C14.2604 30.1242 13.9941 30.0768 13.7617 29.9758L13.5625 30.4344L13.3633 30.8931C13.7436 31.0582 14.166 31.1311 14.5858 31.1076L14.5578 30.6084ZM13.5625 30.4344L13.7617 29.9758C13.5293 29.8749 13.3471 29.7279 13.2262 29.5608L12.8212 29.8541L12.4162 30.1473C12.6523 30.4733 12.9831 30.7279 13.3633 30.8931L13.5625 30.4344ZM12.8212 29.8541L13.2262 29.5608C13.1062 29.3951 13.0497 29.2149 13.0506 29.0394L12.5506 29.0369L12.0506 29.0343C12.0485 29.4347 12.1792 29.82 12.4162 30.1473L12.8212 29.8541ZM12.5506 29.0369H13.0506V23.001H12.5506H12.0506V29.0369H12.5506ZM12.5506 23.001L12.3673 22.5358C12.1034 22.6398 11.8429 22.7478 11.586 22.86L11.7861 23.3182L11.9861 23.7764C12.2318 23.6692 12.481 23.5658 12.7338 23.4662L12.5506 23.001ZM11.7861 23.3182H11.2861V31.2751H11.7861H12.2861V23.3182H11.7861ZM11.7861 31.2751H11.2861C11.2861 31.9735 11.919 32.3829 12.515 32.3829V31.8829V31.3829C12.4176 31.3829 12.3513 31.3511 12.3174 31.3228C12.2858 31.2965 12.2861 31.2795 12.2861 31.2751H11.7861ZM12.515 31.8829V32.3829H28.6412V31.8829V31.3829H12.515V31.8829ZM28.6412 31.8829V32.3829C29.2373 32.3829 29.8702 31.9735 29.8702 31.2751H29.3702H28.8702C28.8702 31.2795 28.8704 31.2965 28.8388 31.3228C28.8049 31.3511 28.7386 31.3829 28.6412 31.3829V31.8829ZM29.3702 31.2751H29.8702V23.3523H29.3702H28.8702V31.2751H29.3702ZM8.10567 25.4453L7.80777 25.0437C5.7863 26.5433 4.16342 28.3895 3.05305 30.4639L3.49387 30.6999L3.93469 30.9358C4.97012 29.0015 6.49134 27.2654 8.40356 25.8468L8.10567 25.4453ZM3.49387 30.6999L3.05305 30.4639C1.94237 32.5389 1.37137 34.7923 1.38278 37.0734L1.88278 37.0709L2.38277 37.0684C2.37222 34.9597 2.89959 32.8696 3.93469 30.9358L3.49387 30.6999ZM1.88278 37.0709H1.38278V41.5177H1.88278H2.38278V37.0709H1.88278ZM1.88278 41.5177V42.0177H8.10567V41.5177V41.0177H1.88278V41.5177ZM8.10567 41.5177H8.60567V25.4453H8.10567H7.60567V41.5177H8.10567ZM40.9803 33.6423H41.4803V32.7396H40.9803H40.4803V33.6423H40.9803ZM40.9803 32.7396H41.4803C41.4803 31.976 40.7656 31.4985 40.0913 31.4985V31.9985V32.4985C40.2221 32.4985 40.33 32.5438 40.3983 32.6008C40.4662 32.6574 40.4803 32.7096 40.4803 32.7396H40.9803ZM40.0913 31.9985L40.0906 31.4985C39.8357 31.4988 39.5811 31.5615 39.3579 31.6853L39.6004 32.1225L39.8429 32.5598C39.9106 32.5222 39.9975 32.4986 40.092 32.4985L40.0913 31.9985ZM39.6004 32.1225L39.3579 31.6853C39.1345 31.8092 38.9448 31.9936 38.8271 32.2267L39.2734 32.452L39.7198 32.6774C39.7376 32.642 39.7754 32.5972 39.8429 32.5598L39.6004 32.1225ZM39.2734 32.452H38.7734V33.6438H39.2734H39.7734V32.452H39.2734ZM39.2734 33.6438L39.2739 34.1438L40.9807 34.1423L40.9803 33.6423L40.9799 33.1423L39.273 33.1438L39.2734 33.6438ZM34.4729 41.4881V41.9881H40.3402V41.4881V40.9881H34.4729V41.4881ZM40.3402 41.4881V41.9881C40.6209 41.9881 40.9043 41.8959 41.1256 41.7115L40.8054 41.3274L40.4852 40.9434C40.4597 40.9647 40.4085 40.9881 40.3402 40.9881V41.4881ZM40.8054 41.3274L41.1256 41.7115C41.3494 41.5248 41.4981 41.2501 41.4981 40.9396H40.9981H40.4981C40.4981 40.9361 40.4985 40.933 40.4991 40.9305C40.4997 40.9281 40.5003 40.9269 40.5002 40.927C40.5002 40.9271 40.4969 40.9337 40.4852 40.9434L40.8054 41.3274ZM40.9981 40.9396H41.4981V35.7398H40.9981H40.4981V40.9396H40.9981ZM40.9981 35.7398L41.4949 35.6834L41.4824 35.5737L40.9856 35.6301L40.4888 35.6864L40.5013 35.7961L40.9981 35.7398ZM40.9856 35.6301L41.472 35.5143C41.4103 35.2548 41.2478 35.0424 41.0402 34.9003L40.7578 35.3129L40.4754 35.7255C40.5032 35.7445 40.5017 35.7563 40.4992 35.7458L40.9856 35.6301ZM40.7578 35.3129L41.0402 34.9003C40.8335 34.7589 40.586 34.6883 40.3401 34.6884L40.3402 35.1884L40.3403 35.6884C40.3989 35.6883 40.4466 35.7058 40.4754 35.7255L40.7578 35.3129ZM40.3402 35.1884V34.6884H34.6507V35.1884V35.6884H40.3402V35.1884ZM34.6507 35.1884L34.5673 34.6954C34.5366 34.7006 34.5051 34.7032 34.4733 34.7032L34.4729 35.2032L34.4725 35.7032C34.5602 35.7032 34.6478 35.696 34.7342 35.6813L34.6507 35.1884ZM34.4729 35.2032V34.7032C34.0175 34.7032 33.5091 35.0138 33.4931 35.5469L33.9929 35.5619L34.4926 35.5769C34.4913 35.6219 34.4783 35.6551 34.4674 35.6747C34.4565 35.6941 34.4461 35.7035 34.4422 35.7065C34.4341 35.713 34.4416 35.7032 34.4729 35.7032V35.2032ZM33.9929 35.5619H33.4929V35.5723H33.9929H34.4929V35.5619H33.9929ZM33.9929 35.5723L33.4929 35.5643C33.4903 35.7327 33.5401 35.8926 33.6282 36.0276L34.0469 35.7543L34.4656 35.481C34.4809 35.5044 34.4935 35.5389 34.4928 35.5802L33.9929 35.5723ZM34.0469 35.7543L33.6282 36.0276C33.7156 36.1615 33.8359 36.2642 33.9689 36.3339L34.2009 35.891L34.4329 35.448C34.4368 35.4501 34.451 35.4587 34.4656 35.481L34.0469 35.7543ZM34.2009 35.891L33.9582 36.3281C34.0148 36.3595 34.051 36.3965 34.0715 36.4287L34.4929 36.1595L34.9143 35.8904C34.7964 35.7059 34.6319 35.5584 34.4436 35.4538L34.2009 35.891ZM34.4929 36.1595L34.0715 36.4287C34.0914 36.4598 34.0973 36.4869 34.0972 36.5085L34.5972 36.5114L35.0972 36.5143C35.0984 36.2906 35.0327 36.0758 34.9143 35.8904L34.4929 36.1595ZM34.5972 36.5114L34.0972 36.5085C34.097 36.5302 34.0908 36.5575 34.0703 36.5889L34.4888 36.8624L34.9074 37.136C35.0277 36.9519 35.0959 36.738 35.0972 36.5143L34.5972 36.5114ZM34.4888 36.8624L34.0703 36.5889C34.0492 36.6212 34.0122 36.6582 33.955 36.6894L34.1938 37.1287L34.4326 37.5679C34.6219 37.465 34.7877 37.3191 34.9074 37.136L34.4888 36.8624ZM34.1938 37.1287L33.9544 36.6897C33.8306 36.7572 33.7187 36.8537 33.6351 36.9776L34.0497 37.2572L34.4642 37.5367C34.4506 37.5569 34.4375 37.5653 34.4332 37.5676L34.1938 37.1287ZM34.0497 37.2572L33.6351 36.9776C33.551 37.1024 33.4995 37.2498 33.4933 37.4069L33.9929 37.4266L34.4925 37.4463C34.491 37.4845 34.4784 37.5157 34.4642 37.5367L34.0497 37.2572ZM33.9929 37.4266H33.4929C33.4929 37.7804 33.7053 38.0325 33.9425 38.1578L34.176 37.7156L34.4095 37.2735C34.4189 37.2785 34.4402 37.2923 34.4601 37.3222C34.482 37.355 34.4929 37.3933 34.4929 37.4266H33.9929ZM34.176 37.7156L33.9468 38.16C34.0067 38.1909 34.0458 38.2286 34.0683 38.2618L34.4822 37.9813L34.8961 37.7008C34.7714 37.5168 34.5999 37.3717 34.4052 37.2713L34.176 37.7156ZM34.4822 37.9813L34.0683 38.2618C34.0902 38.2941 34.0969 38.3222 34.0972 38.3442L34.5971 38.3371L35.0971 38.33C35.0938 38.1025 35.0215 37.8859 34.8961 37.7008L34.4822 37.9813ZM34.5971 38.3371L34.0972 38.3442C34.0975 38.3662 34.0916 38.3937 34.0713 38.4253L34.4924 38.695L34.9134 38.9648C35.0341 38.7763 35.1003 38.5576 35.0971 38.33L34.5971 38.3371ZM34.4924 38.695L34.0713 38.4253C34.0504 38.458 34.0132 38.4957 33.955 38.5274L34.1938 38.9667L34.4326 39.406C34.6251 39.3014 34.7933 39.1522 34.9134 38.9648L34.4924 38.695ZM34.1938 38.9667L33.9544 38.5277C33.8306 38.5952 33.7187 38.6917 33.6351 38.8157L34.0497 39.0952L34.4642 39.3748C34.4506 39.395 34.4375 39.4033 34.4332 39.4057L34.1938 38.9667ZM34.0497 39.0952L33.6351 38.8157C33.551 38.9404 33.4995 39.0878 33.4933 39.245L33.9929 39.2646L34.4925 39.2843C34.491 39.3226 34.4784 39.3537 34.4642 39.3748L34.0497 39.0952ZM33.9929 39.2646H33.4929C33.4929 39.6184 33.7053 39.8706 33.9425 39.9958L34.176 39.5537L34.4095 39.1115C34.4189 39.1165 34.4402 39.1303 34.4601 39.1602C34.482 39.193 34.4929 39.2313 34.4929 39.2646H33.9929ZM34.176 39.5537L33.9465 39.9979C34.006 40.0287 34.045 40.0661 34.0675 40.0992L34.4808 39.8178L34.8941 39.5364C34.7697 39.3536 34.599 39.2094 34.4055 39.1095L34.176 39.5537ZM34.4808 39.8178L34.0675 40.0992C34.0894 40.1313 34.0962 40.1594 34.0967 40.1813L34.5966 40.1713L35.0965 40.1613C35.0919 39.9351 35.0192 39.72 34.8941 39.5364L34.4808 39.8178ZM34.5966 40.1713L34.0967 40.1813C34.0971 40.2031 34.0915 40.2303 34.0718 40.2617L34.495 40.5279L34.9182 40.7941C35.0368 40.6056 35.101 40.3876 35.0965 40.1613L34.5966 40.1713ZM34.495 40.5279L34.0718 40.2617C34.0514 40.294 34.0152 40.3315 33.958 40.3633L34.2009 40.8003L34.4438 41.2373C34.6343 41.1314 34.8003 40.9816 34.9182 40.7941L34.495 40.5279ZM34.2009 40.8003L33.9523 40.3665C33.821 40.4417 33.7039 40.5488 33.6199 40.6853L34.0457 40.9474L34.4715 41.2095C34.4602 41.228 34.4497 41.234 34.4495 41.2341L34.2009 40.8003ZM34.0457 40.9474L33.6199 40.6853C33.5353 40.8228 33.4889 40.983 33.493 41.1505L33.9929 41.1382L34.4927 41.126C34.4936 41.1609 34.4835 41.19 34.4715 41.2095L34.0457 40.9474ZM33.9929 41.1382L33.4938 41.1687C33.5255 41.6883 34.0225 41.9881 34.4729 41.9881V41.4881V40.9881C34.4411 40.9881 34.4331 40.9783 34.4408 40.9842C34.4444 40.9871 34.4544 40.9958 34.4652 41.0143C34.4761 41.0328 34.4893 41.0643 34.4919 41.1078L33.9929 41.1382ZM16.1207 23.2826L16.2752 22.8071C15.6737 22.6117 15.1065 22.3534 14.5872 22.0395L14.3286 22.4674L14.0699 22.8952C14.657 23.2502 15.2944 23.5399 15.9663 23.7582L16.1207 23.2826ZM14.3286 22.4674H13.8286V29.0369H14.3286H14.8286V22.4674H14.3286ZM14.3286 29.0369L13.8303 29.0781C13.8327 29.1075 13.8377 29.1516 13.8508 29.2005C13.8595 29.2334 13.8911 29.3484 13.9942 29.4486L14.3428 29.0902L14.6914 28.7318C14.7445 28.7834 14.7737 28.8355 14.7887 28.8667C14.8044 28.8994 14.8127 28.9268 14.817 28.9429C14.8253 28.974 14.8268 28.9949 14.8268 28.9956L14.3286 29.0369ZM14.3428 29.0902L13.9918 29.4463C14.0403 29.4941 14.0945 29.5327 14.1509 29.5624L14.3837 29.1199L14.6164 28.6773C14.6421 28.6909 14.6687 28.7094 14.6938 28.7341L14.3428 29.0902ZM14.3837 29.1199L14.2241 29.5937C14.2835 29.6137 14.3448 29.6255 14.4059 29.6293L14.437 29.1302L14.4681 28.6312C14.4926 28.6327 14.5178 28.6375 14.5432 28.646L14.3837 29.1199ZM14.437 29.1302V29.6302C14.5256 29.6302 14.598 29.6077 14.6252 29.599L14.4726 29.1228L14.3199 28.6467C14.3237 28.6455 14.3344 28.6422 14.3501 28.6389C14.364 28.636 14.3952 28.6302 14.437 28.6302V29.1302ZM14.4726 29.1228L14.7647 29.5286L19.1794 26.3506L18.8873 25.9448L18.5951 25.539L14.1804 28.717L14.4726 29.1228ZM18.8873 25.9448L19.0428 25.4696C18.4238 25.2669 17.8812 24.9447 17.4577 24.5373L17.111 24.8975L16.7644 25.2578C17.3046 25.7777 17.9809 26.1742 18.7317 26.42L18.8873 25.9448ZM17.111 24.8975L17.4577 24.5373C17.0347 24.1302 16.7446 23.6518 16.6019 23.1467L16.1207 23.2826L15.6396 23.4185C15.8342 24.1077 16.2237 24.7376 16.7644 25.2578L17.111 24.8975ZM9.74139 13.4877H9.24139C9.24139 14.8027 10.4859 15.7219 11.8216 15.7219V15.2219V14.7219C10.8602 14.7219 10.2414 14.0878 10.2414 13.4877H9.74139ZM11.8216 15.2219L11.8233 15.7219L12.6821 15.719L12.6804 15.219L12.6786 14.719L11.8199 14.722L11.8216 15.2219ZM12.6804 15.219L12.1819 15.2583L12.3864 17.8537L12.8848 17.8145L13.3833 17.7752L13.1788 15.1797L12.6804 15.219ZM12.8848 17.8145L12.3918 17.8976C12.6232 19.2692 13.4362 20.503 14.6499 21.3848L14.9438 20.9803L15.2377 20.5758C14.2096 19.8288 13.5606 18.8146 13.3779 17.7313L12.8848 17.8145ZM14.9438 20.9803L14.6499 21.3848C15.8622 22.2656 17.4019 22.7445 18.9857 22.748L18.9868 22.248L18.9879 21.748C17.5983 21.7449 16.267 21.3237 15.2377 20.5758L14.9438 20.9803ZM18.9868 22.248V22.748H22.365V22.248V21.748H18.9868V22.248ZM22.365 22.248L22.3655 22.748C23.9497 22.7462 25.4904 22.2681 26.7032 21.3872L26.4094 20.9826L26.1156 20.5781C25.086 21.3259 23.7542 21.7464 22.3644 21.748L22.365 22.248ZM26.4094 20.9826L26.7032 21.3872C27.9174 20.5053 28.7302 19.2708 28.9601 17.8986L28.4669 17.816L27.9738 17.7333C27.7923 18.8167 27.1438 19.8313 26.1156 20.5781L26.4094 20.9826ZM28.4669 17.816L28.9656 17.8532L29.1558 15.3066L28.6572 15.2694L28.1586 15.2321L27.9683 17.7787L28.4669 17.816ZM28.6572 15.2694L28.692 15.7682L29.4565 15.7148L29.4217 15.216L29.3869 14.7172L28.6224 14.7706L28.6572 15.2694ZM29.4217 15.216L29.4567 15.7148C29.934 15.6813 30.3966 15.5335 30.7885 15.2814L30.518 14.8609L30.2475 14.4404C30.0056 14.596 29.707 14.6948 29.3867 14.7172L29.4217 15.216ZM30.518 14.8609L30.7885 15.2814C31.1807 15.0291 31.4914 14.6787 31.6682 14.2625L31.208 14.0669L30.7479 13.8714C30.6574 14.0842 30.489 14.2851 30.2475 14.4404L30.518 14.8609ZM31.208 14.0669L31.6682 14.2625C31.8459 13.8443 31.8762 13.3871 31.7523 12.9511L31.2713 13.0878L30.7904 13.2246C30.851 13.4379 30.8374 13.6606 30.7479 13.8714L31.208 14.0669ZM31.2713 13.0878L31.7523 12.9511C31.6288 12.5168 31.3618 12.1357 31 11.8462L30.6876 12.2366L30.3752 12.627C30.5909 12.7996 30.7293 13.0096 30.7904 13.2246L31.2713 13.0878ZM30.6876 12.2366L30.9337 11.8013C30.9076 11.7866 30.8856 11.7705 30.8676 11.7541L30.5312 12.124L30.1947 12.4938C30.2702 12.5625 30.3532 12.6219 30.4416 12.6719L30.6876 12.2366ZM30.5312 12.124L30.8032 11.7044C30.4937 11.5038 30.1396 11.3665 29.7676 11.2986L29.6777 11.7905L29.5879 12.2823C29.8374 12.3279 30.0665 12.4185 30.2591 12.5435L30.5312 12.124ZM29.6777 11.7905L29.7643 11.298L29.014 11.1661L28.9274 11.6585L28.8409 12.151L29.5912 12.2829L29.6777 11.7905ZM28.9274 11.6585L29.4261 11.6952L29.4741 11.043L28.9755 11.0063L28.4768 10.9696L28.4288 11.6218L28.9274 11.6585ZM28.9755 11.0063L28.8774 10.516C28.377 10.6161 27.8514 10.5693 27.3924 10.3874L27.2081 10.8522L27.0239 11.317C27.6661 11.5716 28.3881 11.6337 29.0735 11.4966L28.9755 11.0063ZM27.2081 10.8522L26.8235 10.5327L26.7915 10.5713L27.1761 10.8907L27.5608 11.2101L27.5928 11.1716L27.2081 10.8522ZM27.1761 10.8907L26.8108 10.5494C26.8174 10.5423 26.821 10.5412 26.8184 10.5424C26.8159 10.5436 26.8099 10.5458 26.8006 10.5468L26.8536 11.044L26.9066 11.5412C27.1398 11.5163 27.3714 11.4141 27.5415 11.232L27.1761 10.8907ZM26.8536 11.044L26.8006 10.5468C26.7913 10.5478 26.7822 10.5472 26.7746 10.5455C26.7669 10.5437 26.7638 10.5416 26.7647 10.5422L26.4952 10.9633L26.2257 11.3845C26.4294 11.5148 26.6733 11.5661 26.9066 11.5412L26.8536 11.044ZM26.4952 10.9633V10.4633H26.4934V10.9633V11.4633H26.4952V10.9633ZM26.4934 10.9633L26.8597 11.3036L27.1406 11.0013L26.7743 10.661L26.408 10.3206L26.1271 10.623L26.4934 10.9633ZM26.7743 10.661L26.4088 10.3197L26.1279 10.6206L26.4934 10.9619L26.8589 11.3031L27.1398 11.0022L26.7743 10.661ZM26.4934 10.9619L26.6858 10.5003L26.6822 10.4989L26.4898 10.9604L26.2975 11.4219L26.301 11.4234L26.4934 10.9619ZM26.4898 10.9604L26.7434 10.5295L26.7132 10.5117L26.4596 10.9426L26.206 11.3735L26.2363 11.3913L26.4898 10.9604ZM26.4596 10.9426L26.6964 10.5022L26.5612 10.4295L26.3245 10.87L26.0878 11.3104L26.2229 11.383L26.4596 10.9426ZM26.3245 10.87L26.5431 10.4203C25.7025 10.0115 24.7324 9.84502 23.7772 9.93956L23.8265 10.4371L23.8757 10.9347C24.6544 10.8576 25.4382 10.995 26.1059 11.3196L26.3245 10.87ZM23.8265 10.4371L23.7776 9.93951C23.7594 9.9413 23.746 9.9367 23.7423 9.93472L23.5076 10.3762L23.2728 10.8177C23.4585 10.9164 23.6704 10.9548 23.8753 10.9347L23.8265 10.4371ZM23.5076 10.3762L23.7423 9.93472C23.739 9.93294 23.7579 9.94194 23.7718 9.9771L23.3068 10.1608L22.8418 10.3446C22.926 10.5576 23.0868 10.7188 23.2728 10.8177L23.5076 10.3762ZM23.3068 10.1608L23.7718 9.9771C23.7788 9.99478 23.7829 10.0159 23.7823 10.0384C23.7816 10.061 23.7763 10.0812 23.7689 10.0973L23.3147 9.88817L22.8606 9.67899C22.7636 9.8895 22.7561 10.1278 22.8418 10.3446L23.3068 10.1608ZM23.3147 9.88817L23.7689 10.0973C23.7542 10.1292 23.7372 10.1352 23.7429 10.1325L23.5278 9.68116L23.3126 9.2298C23.1233 9.32002 22.9558 9.47234 22.8606 9.67899L23.3147 9.88817ZM23.5278 9.68116L23.6185 9.18946C22.6109 9.0035 21.5823 8.9103 20.5509 8.91138L20.5514 9.41138L20.552 9.91138C21.5225 9.91036 22.49 9.99809 23.437 10.1729L23.5278 9.68116ZM20.5514 9.41138V8.91138C19.4292 8.91138 18.4087 9.01977 17.4976 9.18635L17.5876 9.6782L17.6775 10.17C18.5338 10.0135 19.4939 9.91138 20.5514 9.91138V9.41138ZM17.5876 9.6782L17.3788 10.1325C17.3853 10.1355 17.3686 10.1302 17.3537 10.099L17.8052 9.88413L18.2567 9.6693C18.1585 9.4628 17.9879 9.31189 17.7963 9.22387L17.5876 9.6782ZM17.8052 9.88413L17.3537 10.099C17.3462 10.083 17.3406 10.0629 17.3397 10.0403C17.3388 10.0175 17.3428 9.9962 17.3497 9.97819L17.8161 10.1585L18.2825 10.3387C18.3672 10.1196 18.3569 9.87976 18.2567 9.6693L17.8052 9.88413ZM17.8161 10.1585L17.3497 9.97819C17.3636 9.94236 17.3829 9.93308 17.3796 9.93484L17.6151 10.3759L17.8507 10.817C18.0378 10.717 18.1992 10.554 18.2825 10.3387L17.8161 10.1585ZM17.6151 10.3759L17.3796 9.93484C17.376 9.93681 17.3625 9.94146 17.3441 9.93962L17.2942 10.4371L17.2443 10.9346C17.4505 10.9553 17.6639 10.9167 17.8507 10.817L17.6151 10.3759ZM17.2942 10.4371L17.3428 9.9395C16.3881 9.84619 15.4189 10.0126 14.5781 10.42L14.7962 10.87L15.0142 11.3199C15.6827 10.996 16.4665 10.8586 17.2456 10.9348L17.2942 10.4371ZM14.7962 10.87L14.5594 10.4295L14.4243 10.5022L14.661 10.9426L14.8978 11.383L15.0329 11.3104L14.7962 10.87ZM14.661 10.9426L14.4074 10.5117L14.3772 10.5295L14.6308 10.9604L14.8844 11.3913L14.9146 11.3735L14.661 10.9426ZM14.6308 10.9604L14.3106 10.5763L14.3071 10.5793L14.6273 10.9633L14.9474 11.3474L14.951 11.3444L14.6308 10.9604ZM14.6273 10.9633L14.3569 10.5427C14.3579 10.5421 14.3541 10.5446 14.3452 10.5464L14.4417 11.037L14.5383 11.5275C14.6642 11.5028 14.7869 11.4551 14.8976 11.384L14.6273 10.9633ZM14.4417 11.037L14.3452 10.5464C14.3363 10.5481 14.3262 10.5483 14.3168 10.5468L14.2363 11.0403L14.1559 11.5338C14.2824 11.5544 14.4124 11.5523 14.5383 11.5275L14.4417 11.037ZM14.2363 11.0403L14.3168 10.5468C14.3123 10.5461 14.3087 10.5451 14.3061 10.5441C14.3035 10.5432 14.3024 10.5425 14.3025 10.5426L14.0475 10.9727L13.7926 11.4028C13.9054 11.4697 14.0294 11.5131 14.1559 11.5338L14.2363 11.0403ZM14.0475 10.9727L14.3025 10.5426C14.3026 10.5426 14.3043 10.5437 14.3072 10.5463C14.31 10.5489 14.3142 10.5532 14.3187 10.5597L13.909 10.8462L13.4992 11.1328C13.578 11.2454 13.6797 11.3359 13.7926 11.4028L14.0475 10.9727ZM13.909 10.8462L13.7225 10.3823C13.3079 10.549 12.8517 10.601 12.414 10.5458L12.3515 11.0419L12.2889 11.538C12.8859 11.6132 13.5143 11.5437 14.0954 11.3102L13.909 10.8462ZM12.3515 11.0419L11.853 11.0807L11.9027 11.721L12.4012 11.6822L12.8997 11.6435L12.8499 11.0031L12.3515 11.0419ZM12.4012 11.6822L12.3509 11.1848L11.5153 11.2693L11.5656 11.7667L11.6159 12.2642L12.4515 12.1797L12.4012 11.6822ZM11.5656 11.7667L11.5119 11.2696C11.1681 11.3068 10.8339 11.4023 10.5296 11.5528L10.7513 12.0009L10.973 12.4491C11.1677 12.3528 11.3877 12.2889 11.6193 12.2638L11.5656 11.7667ZM10.7513 12.0009L10.3399 11.7167C10.3065 11.7651 10.2387 11.8205 10.1329 11.851L10.2712 12.3315L10.4096 12.812C10.7089 12.7258 10.9821 12.5464 11.1626 12.2852L10.7513 12.0009ZM10.2712 12.3315L9.93017 11.9659C9.51511 12.3531 9.24139 12.8848 9.24139 13.4877H9.74139H10.2414C10.2414 13.2012 10.3695 12.9236 10.6123 12.6971L10.2712 12.3315ZM13.8663 10.5142L14.2832 10.2383L14.1126 9.98035L13.6956 10.2563L13.2786 10.5322L13.4493 10.7901L13.8663 10.5142ZM13.6956 10.2563L13.2814 10.5364L13.4539 10.7914L13.8681 10.5112L14.2822 10.2311L14.1097 9.97614L13.6956 10.2563ZM13.8681 10.5112L13.4393 10.254L13.4375 10.2569L13.8663 10.5142L14.295 10.7715L14.2968 10.7685L13.8681 10.5112ZM18.9868 23.7303V23.2303C18.7512 23.2303 18.5181 23.2209 18.2875 23.2023L18.2472 23.7006L18.2069 24.199C18.4647 24.2199 18.7247 24.2303 18.9868 24.2303V23.7303ZM18.2472 23.7006L17.8574 24.0138C18.1631 24.3942 18.569 24.6981 19.0337 24.906L19.2379 24.4496L19.4421 23.9932C19.1094 23.8443 18.835 23.6339 18.637 23.3874L18.2472 23.7006ZM19.2379 24.4496L19.0337 24.906C19.4984 25.114 20.0126 25.222 20.5323 25.224L20.5342 24.724L20.5362 24.224C20.1508 24.2225 19.7749 24.1421 19.4421 23.9932L19.2379 24.4496ZM20.5342 24.724L20.5323 25.224C21.0519 25.226 21.5672 25.122 22.0339 24.9178L21.8335 24.4597L21.6331 24.0016C21.2984 24.1481 20.9215 24.2255 20.5362 24.224L20.5342 24.724ZM21.8335 24.4597L22.0339 24.9178C22.5006 24.7136 22.9096 24.4131 23.2192 24.0354L22.8326 23.7184L22.4459 23.4014C22.2449 23.6467 21.9678 23.8552 21.6331 24.0016L21.8335 24.4597ZM22.8326 23.7184L22.8089 23.219C22.6605 23.226 22.5119 23.2298 22.3633 23.2303L22.365 23.7303L22.3667 24.2303C22.5299 24.2297 22.6932 24.2256 22.8562 24.2179L22.8326 23.7184ZM22.365 23.7303V23.2303H18.9868V23.7303V24.2303H22.365V23.7303ZM22.2138 25.9433L21.9218 26.3492L26.34 29.5287L26.6321 29.1228L26.9241 28.717L22.5059 25.5375L22.2138 25.9433ZM26.6321 29.1228L26.525 29.6112L26.5587 29.6186L26.6659 29.1302L26.773 28.6419L26.7392 28.6344L26.6321 29.1228ZM26.6659 29.1302L26.697 29.6293C26.7581 29.6255 26.8193 29.6137 26.8788 29.5937L26.7192 29.1199L26.5596 28.646C26.585 28.6375 26.6103 28.6327 26.6348 28.6312L26.6659 29.1302ZM26.7192 29.1199L26.9519 29.5624C27.0084 29.5327 27.0626 29.4942 27.1111 29.4463L26.7601 29.0902L26.4091 28.7341C26.4342 28.7094 26.4607 28.6909 26.4865 28.6773L26.7192 29.1199ZM26.7601 29.0902L27.205 29.3184C27.2457 29.2391 27.2702 29.1501 27.2739 29.0568L26.7743 29.0369L26.2747 29.0169C26.277 28.9603 26.2919 28.9076 26.3152 28.862L26.7601 29.0902ZM26.7743 29.0369H27.2743V22.6156H26.7743H26.2743V29.0369H26.7743ZM26.7743 22.6156L26.5299 22.1794C26.0007 22.476 25.4289 22.7135 24.8133 22.8912L24.9519 23.3716L25.0905 23.852C25.7764 23.6541 26.4196 23.3876 27.0188 23.0518L26.7743 22.6156ZM24.9519 23.3716L24.4755 23.2198C24.3195 23.7096 24.0251 24.1711 23.6068 24.564L23.9491 24.9285L24.2915 25.2929C24.8241 24.7927 25.2166 24.1878 25.4283 23.5233L24.9519 23.3716ZM23.9491 24.9285L23.6068 24.564C23.1882 24.9573 22.6583 25.2692 22.0565 25.4687L22.2138 25.9433L22.3712 26.4179C23.1004 26.1761 23.7592 25.7929 24.2915 25.2929L23.9491 24.9285ZM26.7708 7.06344L26.9515 6.59726C24.9522 5.82198 22.7769 5.42136 20.5772 5.42136V5.92136V6.42136C22.6568 6.42136 24.7092 6.80031 26.59 7.52962L26.7708 7.06344ZM20.5772 5.92136V5.42136C18.3775 5.42136 16.2023 5.82198 14.2029 6.59726L14.3837 7.06344L14.5644 7.52962C16.4452 6.80031 18.4976 6.42136 20.5772 6.42136V5.92136ZM14.3837 7.06344L14.1913 6.60193L14.1842 6.6049L14.3766 7.06641L14.5689 7.52791L14.576 7.52495L14.3837 7.06344ZM14.3766 7.06641L14.197 6.59976C13.2507 6.9639 12.368 7.43812 11.5754 8.00975L11.8678 8.41529L12.1603 8.82082C12.8803 8.30159 13.6866 7.86766 14.5561 7.53305L14.3766 7.06641ZM11.8678 8.41529L11.5071 8.76147L11.7062 8.96899L12.067 8.62281L12.4277 8.27662L12.2286 8.0691L11.8678 8.41529ZM12.067 8.62281L11.7097 8.97262C12.1535 9.42582 12.8753 9.52475 13.4296 9.26757L13.2191 8.81402L13.0086 8.36047C12.809 8.45311 12.5494 8.40085 12.4242 8.27299L12.067 8.62281ZM13.2191 8.81402L13.4115 9.27553L13.415 9.27405L13.2227 8.81254L13.0303 8.35103L13.0267 8.35251L13.2191 8.81402ZM13.2227 8.81254L13.4299 9.26756C15.6203 8.26983 18.082 7.7472 20.5861 7.75169L20.587 7.25169L20.5879 6.75169C17.9456 6.74695 15.3413 7.29804 13.0154 8.35752L13.2227 8.81254ZM20.587 7.25169V7.75169C23.8719 7.75169 26.3479 8.62457 27.7422 9.26669L27.9513 8.81254L28.1605 8.35839C26.6709 7.67238 24.0512 6.75169 20.587 6.75169V7.25169ZM27.9513 8.81254V9.31254H27.9549V8.81254V8.31254H27.9513V8.81254ZM27.9549 8.81254L27.7434 9.2656C28.0208 9.39509 28.3365 9.43588 28.6384 9.38704L28.5586 8.89346L28.4787 8.39987C28.3679 8.4178 28.2559 8.40124 28.1664 8.35948L27.9549 8.81254ZM28.5586 8.89346L28.6384 9.38704C28.9401 9.33825 29.2276 9.19968 29.4421 8.97727L29.0821 8.63022L28.7222 8.28317C28.6732 8.33395 28.5898 8.38191 28.4787 8.39987L28.5586 8.89346ZM29.0821 8.63022L29.4727 8.94236L29.4763 8.93791L29.0857 8.62577L28.6951 8.31363L28.6915 8.31808L29.0821 8.63022ZM29.0857 8.62577L29.4446 8.97386L29.6473 8.76486L29.2884 8.41677L28.9294 8.06868L28.7267 8.27768L29.0857 8.62577ZM29.2884 8.41677L29.5775 8.00887C28.7793 7.44295 27.8969 6.96894 26.9537 6.59812L26.7708 7.06344L26.5878 7.52877C27.4588 7.87123 28.2695 8.30733 28.9992 8.82466L29.2884 8.41677ZM18.2401 35.9443H18.7401C18.7401 34.5344 17.396 33.5322 15.9465 33.5322V34.0322V34.5322C17.0217 34.5322 17.7401 35.2493 17.7401 35.9443H18.2401ZM15.9465 34.0322V33.5322H13.3684V34.0322V34.5322H15.9465V34.0322ZM13.3684 34.0322V33.5322C11.919 33.5322 10.5749 34.5344 10.5749 35.9443H11.0749H11.5749C11.5749 35.2493 12.2932 34.5322 13.3684 34.5322V34.0322ZM11.0749 35.9443H10.5749C10.5749 37.3542 11.919 38.3565 13.3684 38.3565V37.8565V37.3565C12.2932 37.3565 11.5749 36.6393 11.5749 35.9443H11.0749ZM13.3684 37.8565V38.3565H15.9465V37.8565V37.3565H13.3684V37.8565ZM15.9465 37.8565V38.3565C17.4138 38.3565 18.7401 37.369 18.7401 35.9443H18.2401H17.7401C17.7401 36.6541 17.0395 37.3565 15.9465 37.3565V37.8565Z" fill="white" mask="url(#path-1-inside-1_126_104)"/>
</svg>
