<svg width="32" height="33" viewBox="0 0 32 33" fill="none" xmlns="http://www.w3.org/2000/svg">
<path d="M6.10639 23.6019C5.93449 23.4301 5.70137 23.3335 5.45831 23.3335C5.21524 23.3335 4.98212 23.4301 4.81022 23.6019L3.62497 24.7872L2.43972 23.6019C2.35516 23.5144 2.25401 23.4445 2.14218 23.3965C2.03034 23.3485 1.91005 23.3232 1.78834 23.3221C1.66663 23.3211 1.54592 23.3442 1.43326 23.3903C1.32061 23.4364 1.21826 23.5045 1.13219 23.5906C1.04613 23.6766 0.97806 23.779 0.931969 23.8916C0.885878 24.0043 0.862685 24.125 0.863743 24.2467C0.864801 24.3684 0.890088 24.4887 0.93813 24.6005C0.986171 24.7124 1.05601 24.8135 1.14356 24.8981L2.32881 26.0833L1.14356 27.2686C1.05601 27.3532 0.986171 27.4543 0.93813 27.5661C0.890088 27.678 0.864801 27.7983 0.863743 27.92C0.862685 28.0417 0.885878 28.1624 0.931969 28.275C0.97806 28.3877 1.04613 28.4901 1.13219 28.5761C1.21826 28.6622 1.32061 28.7303 1.43326 28.7763C1.54592 28.8224 1.66663 28.8456 1.78834 28.8446C1.91005 28.8435 2.03034 28.8182 2.14218 28.7702C2.25401 28.7221 2.35516 28.6523 2.43972 28.5648L3.62497 27.3795L4.81022 28.5648C4.98311 28.7317 5.21466 28.8241 5.45501 28.822C5.69535 28.82 5.92527 28.7236 6.09522 28.5536C6.26518 28.3836 6.36159 28.1537 6.36367 27.9134C6.36576 27.673 6.27337 27.4415 6.10639 27.2686L4.92114 26.0833L6.10639 24.8981C6.27824 24.7262 6.37478 24.4931 6.37478 24.25C6.37478 24.0069 6.27824 23.7738 6.10639 23.6019ZM14.3564 23.6019C14.1845 23.4301 13.9514 23.3335 13.7083 23.3335C13.4652 23.3335 13.2321 23.4301 13.0602 23.6019L11.875 24.7872L10.6897 23.6019C10.5168 23.4349 10.2853 23.3426 10.0449 23.3446C9.80459 23.3467 9.57468 23.4431 9.40472 23.6131C9.23477 23.783 9.13836 24.013 9.13627 24.2533C9.13418 24.4937 9.22658 24.7252 9.39356 24.8981L10.5788 26.0833L9.39356 27.2686C9.306 27.3532 9.23617 27.4543 9.18813 27.5661C9.14009 27.678 9.1148 27.7983 9.11374 27.92C9.11269 28.0417 9.13588 28.1624 9.18197 28.275C9.22806 28.3877 9.29613 28.4901 9.38219 28.5761C9.46826 28.6622 9.57061 28.7303 9.68327 28.7763C9.79592 28.8224 9.91663 28.8456 10.0383 28.8446C10.1601 28.8435 10.2803 28.8182 10.3922 28.7702C10.504 28.7221 10.6052 28.6523 10.6897 28.5648L11.875 27.3795L13.0602 28.5648C13.2331 28.7317 13.4647 28.8241 13.705 28.822C13.9454 28.82 14.1753 28.7236 14.3452 28.5536C14.5152 28.3836 14.6116 28.1537 14.6137 27.9134C14.6158 27.673 14.5234 27.4415 14.3564 27.2686L13.1711 26.0833L14.3564 24.8981C14.5282 24.7262 14.6248 24.4931 14.6248 24.25C14.6248 24.0069 14.5282 23.7738 14.3564 23.6019ZM22.6064 23.6019C22.4345 23.4301 22.2014 23.3335 21.9583 23.3335C21.7152 23.3335 21.4821 23.4301 21.3102 23.6019L20.125 24.7872L18.9397 23.6019C18.7668 23.4349 18.5353 23.3426 18.2949 23.3446C18.0546 23.3467 17.8247 23.4431 17.6547 23.6131C17.4848 23.783 17.3884 24.013 17.3863 24.2533C17.3842 24.4937 17.4766 24.7252 17.6436 24.8981L18.8288 26.0833L17.6436 27.2686C17.556 27.3532 17.4862 27.4543 17.4381 27.5661C17.3901 27.678 17.3648 27.7983 17.3637 27.92C17.3627 28.0417 17.3859 28.1624 17.432 28.275C17.4781 28.3877 17.5461 28.4901 17.6322 28.5761C17.7183 28.6622 17.8206 28.7303 17.9333 28.7763C18.0459 28.8224 18.1666 28.8456 18.2883 28.8446C18.4101 28.8435 18.5303 28.8182 18.6422 28.7702C18.754 28.7221 18.8552 28.6523 18.9397 28.5648L20.125 27.3795L21.3102 28.5648C21.4831 28.7317 21.7147 28.8241 21.955 28.822C22.1954 28.82 22.4253 28.7236 22.5952 28.5536C22.7652 28.3836 22.8616 28.1537 22.8637 27.9134C22.8658 27.673 22.7734 27.4415 22.6064 27.2686L21.4211 26.0833L22.6064 24.8981C22.7782 24.7262 22.8748 24.4931 22.8748 24.25C22.8748 24.0069 22.7782 23.7738 22.6064 23.6019ZM29.6711 26.0833L30.8564 24.8981C31.0234 24.7252 31.1158 24.4937 31.1137 24.2533C31.1116 24.013 31.0152 23.783 30.8452 23.6131C30.6753 23.4431 30.4454 23.3467 30.205 23.3446C29.9647 23.3426 29.7331 23.4349 29.5602 23.6019L28.375 24.7872L27.1897 23.6019C27.0168 23.4349 26.7853 23.3426 26.5449 23.3446C26.3046 23.3467 26.0747 23.4431 25.9047 23.6131C25.7348 23.783 25.6384 24.013 25.6363 24.2533C25.6342 24.4937 25.7266 24.7252 25.8936 24.8981L27.0788 26.0833L25.8936 27.2686C25.806 27.3532 25.7362 27.4543 25.6881 27.5661C25.6401 27.678 25.6148 27.7983 25.6137 27.92C25.6127 28.0417 25.6359 28.1624 25.682 28.275C25.7281 28.3877 25.7961 28.4901 25.8822 28.5761C25.9683 28.6622 26.0706 28.7303 26.1833 28.7763C26.2959 28.8224 26.4166 28.8456 26.5383 28.8446C26.6601 28.8435 26.7803 28.8182 26.8922 28.7702C27.004 28.7221 27.1052 28.6523 27.1897 28.5648L28.375 27.3795L29.5602 28.5648C29.7331 28.7317 29.9647 28.8241 30.205 28.822C30.4454 28.82 30.6753 28.7236 30.8452 28.5536C31.0152 28.3836 31.1116 28.1537 31.1137 27.9134C31.1158 27.673 31.0234 27.4415 30.8564 27.2686L29.6711 26.0833ZM5.45831 30.6667H1.79164C1.54852 30.6667 1.31537 30.7633 1.14346 30.9352C0.97155 31.1071 0.874973 31.3402 0.874973 31.5833C0.874973 31.8265 0.97155 32.0596 1.14346 32.2315C1.31537 32.4034 1.54852 32.5 1.79164 32.5H5.45831C5.70142 32.5 5.93458 32.4034 6.10649 32.2315C6.2784 32.0596 6.37497 31.8265 6.37497 31.5833C6.37497 31.3402 6.2784 31.1071 6.10649 30.9352C5.93458 30.7633 5.70142 30.6667 5.45831 30.6667ZM13.7083 30.6667H10.0416C9.79852 30.6667 9.56537 30.7633 9.39346 30.9352C9.22155 31.1071 9.12497 31.3402 9.12497 31.5833C9.12497 31.8265 9.22155 32.0596 9.39346 32.2315C9.56537 32.4034 9.79852 32.5 10.0416 32.5H13.7083C13.9514 32.5 14.1846 32.4034 14.3565 32.2315C14.5284 32.0596 14.625 31.8265 14.625 31.5833C14.625 31.3402 14.5284 31.1071 14.3565 30.9352C14.1846 30.7633 13.9514 30.6667 13.7083 30.6667ZM21.9583 30.6667H18.2916C18.0485 30.6667 17.8154 30.7633 17.6435 30.9352C17.4715 31.1071 17.375 31.3402 17.375 31.5833C17.375 31.8265 17.4715 32.0596 17.6435 32.2315C17.8154 32.4034 18.0485 32.5 18.2916 32.5H21.9583C22.2014 32.5 22.4346 32.4034 22.6065 32.2315C22.7784 32.0596 22.875 31.8265 22.875 31.5833C22.875 31.3402 22.7784 31.1071 22.6065 30.9352C22.4346 30.7633 22.2014 30.6667 21.9583 30.6667ZM30.2083 30.6667H26.5416C26.2985 30.6667 26.0654 30.7633 25.8935 30.9352C25.7215 31.1071 25.625 31.3402 25.625 31.5833C25.625 31.8265 25.7215 32.0596 25.8935 32.2315C26.0654 32.4034 26.2985 32.5 26.5416 32.5H30.2083C30.4514 32.5 30.6846 32.4034 30.8565 32.2315C31.0284 32.0596 31.125 31.8265 31.125 31.5833C31.125 31.3402 31.0284 31.1071 30.8565 30.9352C30.6846 30.7633 30.4514 30.6667 30.2083 30.6667ZM23.8375 8.30001H22.1416V6.46668C22.1416 4.83781 21.4946 3.27565 20.3428 2.12386C19.191 0.972079 17.6288 0.325012 16 0.325012C14.3711 0.325012 12.8089 0.972079 11.6572 2.12386C10.5054 3.27565 9.8583 4.83781 9.8583 6.46668V8.30001H8.16247C8.04175 8.29879 7.922 8.32166 7.81024 8.36729C7.69847 8.41292 7.59693 8.4804 7.51156 8.56577C7.42619 8.65113 7.35872 8.75267 7.31309 8.86444C7.26745 8.97621 7.24458 9.09596 7.24581 9.21668V17.8333C7.24629 18.5625 7.53618 19.2617 8.0518 19.7774C8.56742 20.293 9.26661 20.5829 9.99581 20.5833H22.0041C22.7333 20.5829 23.4325 20.293 23.9481 19.7774C24.4638 19.2617 24.7537 18.5625 24.7541 17.8333V9.21668C24.7554 9.09596 24.7325 8.97621 24.6869 8.86444C24.6412 8.75267 24.5738 8.65113 24.4884 8.56577C24.403 8.4804 24.3015 8.41292 24.1897 8.36729C24.0779 8.32166 23.9582 8.29879 23.8375 8.30001ZM11.6916 6.46668C11.6916 5.32404 12.1456 4.2282 12.9535 3.42023C13.7615 2.61226 14.8573 2.15834 16 2.15834C17.1426 2.15834 18.2385 2.61226 19.0464 3.42023C19.8544 4.2282 20.3083 5.32404 20.3083 6.46668V8.30001H11.6916V6.46668Z" fill="white"/>
</svg>
